<?xml version="1.0" encoding="UTF-8" standalone="no"?>
<svg
   xmlns:dc="http://purl.org/dc/elements/1.1/"
   xmlns:cc="http://creativecommons.org/ns#"
   xmlns:rdf="http://www.w3.org/1999/02/22-rdf-syntax-ns#"
   xmlns:svg="http://www.w3.org/2000/svg"
   xmlns="http://www.w3.org/2000/svg"
   xmlns:sodipodi="http://sodipodi.sourceforge.net/DTD/sodipodi-0.dtd"
   xmlns:inkscape="http://www.inkscape.org/namespaces/inkscape"
   inkscape:label="BASE"
   sodipodi:docname="FA_LOGO.svg"
   inkscape:version="1.0.1 (3bc2e813f5, 2020-09-07, custom)"
   id="svg43"
   version="1.1"
   viewBox="0 0 297 70"
   height="70mm"
   width="297mm">
  <defs
     id="defs37">
    <rect
       x="76.729164"
       y="97.895836"
       width="259.29166"
       height="52.916668"
       id="rect153" />
    <rect
       x="76.729164"
       y="97.895836"
       width="259.29166"
       height="52.916668"
       id="rect82" />
    <rect
       x="76.729164"
       y="97.895836"
       width="259.29166"
       height="52.916668"
       id="rect153-3" />
    <rect
       x="76.729164"
       y="97.895836"
       width="259.29166"
       height="52.916668"
       id="rect172" />
    <rect
       x="76.729164"
       y="97.895836"
       width="259.29166"
       height="52.916668"
       id="rect153-7" />
    <rect
       x="76.729164"
       y="97.895836"
       width="259.29166"
       height="52.916668"
       id="rect257" />
    <clipPath
       id="clip37a251xyplot"
       class="plotclip">
      <rect
         width="1712"
         height="740"
         id="rect4"
         x="0"
         y="0" />
    </clipPath>
    <filter
       style="color-interpolation-filters:sRGB;"
       inkscape:label="Pixellize"
       id="filter1480"
       inkscape:menu="Pixel Tools"
       inkscape:menu-tooltip="Reduce or remove antialiasing around shapes">
      <feColorMatrix
         values="0.21 0.72 0.072 0 0 0.21 0.72 0.072 0 0 0.21 0.72 0.072 0 0 0 0 0 1 0 "
         id="feColorMatrix1478"
         result="fbSourceGraphic" />
      <feColorMatrix
         result="fbSourceGraphicAlpha"
         in="fbSourceGraphic"
         values="0 0 0 -1 0 0 0 0 -1 0 0 0 0 -1 0 0 0 0 1 0"
         id="feColorMatrix774" />
      <feColorMatrix
         id="feColorMatrix776"
         type="hueRotate"
         values="0"
         result="color1"
         in="fbSourceGraphic" />
      <feColorMatrix
         id="feColorMatrix778"
         type="saturate"
         values="0"
         result="fbSourceGraphic" />
      <feColorMatrix
         result="fbSourceGraphicAlpha"
         in="fbSourceGraphic"
         values="0 0 0 -1 0 0 0 0 -1 0 0 0 0 -1 0 0 0 0 1 0"
         id="feColorMatrix982" />
      <feColorMatrix
         id="feColorMatrix984"
         type="hueRotate"
         values="0"
         result="color1"
         in="fbSourceGraphic" />
      <feColorMatrix
         id="feColorMatrix986"
         type="saturate"
         values="0"
         result="fbSourceGraphic" />
      <feColorMatrix
         result="fbSourceGraphicAlpha"
         in="fbSourceGraphic"
         values="0 0 0 -1 0 0 0 0 -1 0 0 0 0 -1 0 0 0 0 1 0"
         id="feColorMatrix994" />
      <feColorMatrix
         id="feColorMatrix996"
         type="hueRotate"
         values="0"
         result="color1"
         in="fbSourceGraphic" />
      <feColorMatrix
         id="feColorMatrix998"
         type="saturate"
         values="0"
         result="fbSourceGraphic" />
      <feColorMatrix
         result="fbSourceGraphicAlpha"
         in="fbSourceGraphic"
         values="0 0 0 -1 0 0 0 0 -1 0 0 0 0 -1 0 0 0 0 1 0"
         id="feColorMatrix1000" />
      <feColorMatrix
         id="feColorMatrix1002"
         type="hueRotate"
         values="0"
         result="color1"
         in="fbSourceGraphic" />
      <feColorMatrix
         id="feColorMatrix1004"
         type="saturate"
         values="0"
         result="fbSourceGraphic" />
      <feColorMatrix
         result="fbSourceGraphicAlpha"
         in="fbSourceGraphic"
         values="0 0 0 -1 0 0 0 0 -1 0 0 0 0 -1 0 0 0 0 1 0"
         id="feColorMatrix1006" />
      <feColorMatrix
         id="feColorMatrix1008"
         type="hueRotate"
         values="0"
         result="color1"
         in="fbSourceGraphic" />
      <feColorMatrix
         id="feColorMatrix1010"
         type="saturate"
         values="0"
         result="fbSourceGraphic" />
      <feColorMatrix
         result="fbSourceGraphicAlpha"
         in="fbSourceGraphic"
         values="0 0 0 -1 0 0 0 0 -1 0 0 0 0 -1 0 0 0 0 1 0"
         id="feColorMatrix2481" />
      <feColorMatrix
         id="feColorMatrix2483"
         values="1 0 0 0 0 0 1 0 0 0 0 0 1 0 0 0 0 0 1000 -500 "
         in="fbSourceGraphic"
         result="fbSourceGraphic" />
      <feColorMatrix
         result="fbSourceGraphicAlpha"
         in="fbSourceGraphic"
         values="0 0 0 -1 0 0 0 0 -1 0 0 0 0 -1 0 0 0 0 1 0"
         id="feColorMatrix2485" />
      <feColorMatrix
         id="feColorMatrix2487"
         values="1 0 0 0 0 0 1 0 0 0 0 0 1 0 0 0 0 0 1000 -500 "
         in="fbSourceGraphic"
         result="fbSourceGraphic" />
      <feColorMatrix
         result="fbSourceGraphicAlpha"
         in="fbSourceGraphic"
         values="0 0 0 -1 0 0 0 0 -1 0 0 0 0 -1 0 0 0 0 1 0"
         id="feColorMatrix2489" />
      <feColorMatrix
         id="feColorMatrix2491"
         values="1 0 0 0 0 0 1 0 0 0 0 0 1 0 0 0 0 0 1000 -500 "
         in="fbSourceGraphic"
         result="fbSourceGraphic" />
      <feColorMatrix
         result="fbSourceGraphicAlpha"
         in="fbSourceGraphic"
         values="0 0 0 -1 0 0 0 0 -1 0 0 0 0 -1 0 0 0 0 1 0"
         id="feColorMatrix2493" />
      <feColorMatrix
         id="feColorMatrix2495"
         values="1 0 0 0 0 0 1 0 0 0 0 0 1 0 0 0 0 0 1000 -500 "
         in="fbSourceGraphic" />
    </filter>
    <filter
       style="color-interpolation-filters:sRGB;"
       inkscape:label="Colorize"
       id="filter395"
       inkscape:menu="Pixel Tools"
       inkscape:menu-tooltip="Reduce or remove antialiasing around shapes">
      <feComposite
         in2="SourceGraphic"
         operator="arithmetic"
         k1="0"
         k2="1"
         result="composite1"
         id="feComposite381" />
      <feColorMatrix
         in="composite1"
         values="1"
         type="saturate"
         result="colormatrix1"
         id="feColorMatrix383" />
      <feFlood
         flood-opacity="1"
         flood-color="rgb(158,67,0)"
         result="flood1"
         id="feFlood385" />
      <feBlend
         in="flood1"
         in2="colormatrix1"
         mode="multiply"
         result="blend1"
         id="feBlend387" />
      <feBlend
         in2="blend1"
         mode="screen"
         result="blend2"
         id="feBlend389" />
      <feColorMatrix
         in="blend2"
         values="1"
         type="saturate"
         result="colormatrix2"
         id="feColorMatrix391" />
      <feComposite
         in="colormatrix2"
         in2="SourceGraphic"
         operator="in"
         k2="1"
         result="fbSourceGraphic"
         id="feComposite393" />
      <feColorMatrix
         result="fbSourceGraphicAlpha"
         in="fbSourceGraphic"
         values="0 0 0 -1 0 0 0 0 -1 0 0 0 0 -1 0 0 0 0 1 0"
         id="feColorMatrix988" />
      <feColorMatrix
         id="feColorMatrix990"
         type="hueRotate"
         values="0"
         result="color1"
         in="fbSourceGraphic" />
      <feColorMatrix
         id="feColorMatrix992"
         type="saturate"
         values="0"
         result="fbSourceGraphic" />
      <feColorMatrix
         result="fbSourceGraphicAlpha"
         in="fbSourceGraphic"
         values="0 0 0 -1 0 0 0 0 -1 0 0 0 0 -1 0 0 0 0 1 0"
         id="feColorMatrix2477" />
      <feColorMatrix
         id="feColorMatrix2479"
         values="1 0 0 0 0 0 1 0 0 0 0 0 1 0 0 0 0 0 1000 -500 "
         in="fbSourceGraphic"
         result="fbSourceGraphic" />
      <feColorMatrix
         result="fbSourceGraphicAlpha"
         in="fbSourceGraphic"
         values="0 0 0 -1 0 0 0 0 -1 0 0 0 0 -1 0 0 0 0 1 0"
         id="feColorMatrix2497" />
      <feComposite
         in2="fbSourceGraphic"
         id="feComposite2499"
         operator="arithmetic"
         k1="0"
         k2="1"
         result="composite1"
         in="fbSourceGraphic" />
      <feColorMatrix
         id="feColorMatrix2501"
         in="composite1"
         values="1"
         type="saturate"
         result="colormatrix1" />
      <feFlood
         id="feFlood2503"
         flood-opacity="1"
         flood-color="rgb(0,0,0)"
         result="flood1" />
      <feBlend
         in2="colormatrix1"
         id="feBlend2505"
         in="flood1"
         mode="multiply"
         result="blend1" />
      <feBlend
         in2="blend1"
         id="feBlend2507"
         mode="screen"
         result="blend2" />
      <feColorMatrix
         id="feColorMatrix2509"
         in="blend2"
         values="1"
         type="saturate"
         result="colormatrix2" />
      <feComposite
         in2="fbSourceGraphic"
         id="feComposite2511"
         in="colormatrix2"
         operator="in"
         k2="1"
         result="composite2" />
    </filter>
    <filter
       style="color-interpolation-filters:sRGB;"
       inkscape:label="Color Shift"
       id="filter453">
      <feColorMatrix
         type="hueRotate"
         values="330"
         result="color1"
         id="feColorMatrix449" />
      <feColorMatrix
         type="saturate"
         values="0"
         result="fbSourceGraphic"
         id="feColorMatrix451" />
      <feColorMatrix
         result="fbSourceGraphicAlpha"
         in="fbSourceGraphic"
         values="0 0 0 -1 0 0 0 0 -1 0 0 0 0 -1 0 0 0 0 1 0"
         id="feColorMatrix455" />
      <feColorMatrix
         id="feColorMatrix457"
         type="hueRotate"
         values="330"
         result="color1"
         in="fbSourceGraphic" />
      <feColorMatrix
         id="feColorMatrix459"
         type="saturate"
         values="0"
         result="fbSourceGraphic" />
      <feColorMatrix
         result="fbSourceGraphicAlpha"
         in="fbSourceGraphic"
         values="0 0 0 -1 0 0 0 0 -1 0 0 0 0 -1 0 0 0 0 1 0"
         id="feColorMatrix491" />
      <feColorMatrix
         id="feColorMatrix493"
         type="hueRotate"
         values="0"
         result="color1"
         in="fbSourceGraphic" />
      <feColorMatrix
         id="feColorMatrix495"
         type="saturate"
         values="0"
         result="fbSourceGraphic" />
      <feColorMatrix
         result="fbSourceGraphicAlpha"
         in="fbSourceGraphic"
         values="0 0 0 -1 0 0 0 0 -1 0 0 0 0 -1 0 0 0 0 1 0"
         id="feColorMatrix497" />
      <feColorMatrix
         id="feColorMatrix499"
         type="hueRotate"
         values="0"
         result="color1"
         in="fbSourceGraphic" />
      <feColorMatrix
         id="feColorMatrix501"
         type="saturate"
         values="0"
         result="color2" />
    </filter>
    <filter
       style="color-interpolation-filters:sRGB;"
       inkscape:label="Color Shift"
       id="filter748">
      <feColorMatrix
         type="hueRotate"
         values="0"
         result="color1"
         id="feColorMatrix744" />
      <feColorMatrix
         type="saturate"
         values="0"
         result="color2"
         id="feColorMatrix746" />
    </filter>
    <filter
       style="color-interpolation-filters:sRGB;"
       inkscape:label="Color Shift"
       id="filter754">
      <feColorMatrix
         type="hueRotate"
         values="0"
         result="color1"
         id="feColorMatrix750" />
      <feColorMatrix
         type="saturate"
         values="0"
         result="color2"
         id="feColorMatrix752" />
    </filter>
    <filter
       style="color-interpolation-filters:sRGB;"
       inkscape:label="Color Shift"
       id="filter760">
      <feColorMatrix
         type="hueRotate"
         values="0"
         result="color1"
         id="feColorMatrix756" />
      <feColorMatrix
         type="saturate"
         values="0"
         result="color2"
         id="feColorMatrix758" />
    </filter>
    <filter
       style="color-interpolation-filters:sRGB;"
       inkscape:label="Color Shift"
       id="filter766">
      <feColorMatrix
         type="hueRotate"
         values="0"
         result="color1"
         id="feColorMatrix762" />
      <feColorMatrix
         type="saturate"
         values="0"
         result="color2"
         id="feColorMatrix764" />
    </filter>
    <filter
       style="color-interpolation-filters:sRGB;"
       inkscape:label="Color Shift"
       id="filter772">
      <feColorMatrix
         type="hueRotate"
         values="0"
         result="color1"
         id="feColorMatrix768" />
      <feColorMatrix
         type="saturate"
         values="0"
         result="color2"
         id="feColorMatrix770" />
    </filter>
    <filter
       style="color-interpolation-filters:sRGB;"
       inkscape:label="Color Shift"
       id="filter784">
      <feColorMatrix
         type="hueRotate"
         values="0"
         result="color1"
         id="feColorMatrix780" />
      <feColorMatrix
         type="saturate"
         values="0"
         result="color2"
         id="feColorMatrix782" />
    </filter>
    <filter
       style="color-interpolation-filters:sRGB;"
       inkscape:label="Color Shift"
       id="filter790">
      <feColorMatrix
         type="hueRotate"
         values="0"
         result="color1"
         id="feColorMatrix786" />
      <feColorMatrix
         type="saturate"
         values="0"
         result="color2"
         id="feColorMatrix788" />
    </filter>
    <filter
       style="color-interpolation-filters:sRGB;"
       inkscape:label="Color Shift"
       id="filter796">
      <feColorMatrix
         type="hueRotate"
         values="0"
         result="color1"
         id="feColorMatrix792" />
      <feColorMatrix
         type="saturate"
         values="0"
         result="color2"
         id="feColorMatrix794" />
    </filter>
    <filter
       style="color-interpolation-filters:sRGB;"
       inkscape:label="Color Shift"
       id="filter802">
      <feColorMatrix
         type="hueRotate"
         values="0"
         result="color1"
         id="feColorMatrix798" />
      <feColorMatrix
         type="saturate"
         values="0"
         result="color2"
         id="feColorMatrix800" />
    </filter>
    <filter
       style="color-interpolation-filters:sRGB;"
       inkscape:label="Color Shift"
       id="filter808">
      <feColorMatrix
         type="hueRotate"
         values="0"
         result="color1"
         id="feColorMatrix804" />
      <feColorMatrix
         type="saturate"
         values="0"
         result="color2"
         id="feColorMatrix806" />
    </filter>
    <filter
       style="color-interpolation-filters:sRGB;"
       inkscape:label="Color Shift"
       id="filter814">
      <feColorMatrix
         type="hueRotate"
         values="0"
         result="color1"
         id="feColorMatrix810" />
      <feColorMatrix
         type="saturate"
         values="0"
         result="color2"
         id="feColorMatrix812" />
    </filter>
    <filter
       style="color-interpolation-filters:sRGB;"
       inkscape:label="Color Shift"
       id="filter820">
      <feColorMatrix
         type="hueRotate"
         values="0"
         result="color1"
         id="feColorMatrix816" />
      <feColorMatrix
         type="saturate"
         values="0"
         result="color2"
         id="feColorMatrix818" />
    </filter>
    <filter
       style="color-interpolation-filters:sRGB;"
       inkscape:label="Color Shift"
       id="filter826">
      <feColorMatrix
         type="hueRotate"
         values="0"
         result="color1"
         id="feColorMatrix822" />
      <feColorMatrix
         type="saturate"
         values="0"
         result="color2"
         id="feColorMatrix824" />
    </filter>
    <filter
       style="color-interpolation-filters:sRGB;"
       inkscape:label="Color Shift"
       id="filter832">
      <feColorMatrix
         type="hueRotate"
         values="0"
         result="color1"
         id="feColorMatrix828" />
      <feColorMatrix
         type="saturate"
         values="0"
         result="color2"
         id="feColorMatrix830" />
    </filter>
    <filter
       inkscape:collect="always"
       style="color-interpolation-filters:sRGB"
       id="filter243"
       x="-0.0048216829"
       width="1.0096434"
       y="-0.018860736"
       height="1.0377215">
      <feGaussianBlur
         inkscape:collect="always"
         stdDeviation="0.45488962"
         id="feGaussianBlur245" />
    </filter>
  </defs>
  <sodipodi:namedview
     id="base"
     pagecolor="#ffffff"
     bordercolor="#666666"
     borderopacity="1.0"
     inkscape:pageopacity="0.0"
     inkscape:pageshadow="2"
     inkscape:zoom="0.98994949"
     inkscape:cx="484.35748"
     inkscape:cy="274.02125"
     inkscape:document-units="mm"
     inkscape:current-layer="layer2"
     inkscape:document-rotation="0"
     showgrid="false"
     inkscape:window-width="1920"
     inkscape:window-height="1017"
     inkscape:window-x="0"
     inkscape:window-y="27"
     inkscape:window-maximized="1">
    <inkscape:grid
       type="xygrid"
       id="grid128" />
  </sodipodi:namedview>
  <metadata
     id="metadata40">
    <rdf:RDF>
      <cc:Work
         rdf:about="">
        <dc:format>image/svg+xml</dc:format>
        <dc:type
           rdf:resource="http://purl.org/dc/dcmitype/StillImage" />
        <dc:title />
      </cc:Work>
    </rdf:RDF>
  </metadata>
  <rect
     style="fill:#ffffff;fill-opacity:1;stroke:#000000;stroke-width:0.602274;stroke-miterlimit:2"
     id="rect177"
     width="296.39771"
     height="69.397728"
     x="0.301137"
     y="0.301137" />
  <g
     inkscape:groupmode="layer"
     id="layer2"
     inkscape:label="GRAPHS"
     style="filter:url(#filter243)">
    <path
       style="mix-blend-mode:saturation;vector-effect:non-scaling-stroke;fill:none;stroke:#858585;stroke-width:2.00362;stroke-miterlimit:2;stroke-dasharray:none;stroke-opacity:0.710542;filter:url(#filter1480)"
       d="m 1799.6674,44.231302 c -6.7483,-11.563965 -2.559,33.23646 -14.07,36.98 1.8793,-0.49115 -15.4242,59.451258 -21.11,30.619998 -0.5694,27.66771 -1.1387,55.33541 -1.7081,83.00312 8.6816,47.50446 -19.0047,-0.62141 -16.6411,42.45853 -6.2887,-10.56931 -25.0616,17.27944 -31.8261,9.21504 -13.2106,9.68994 -10.5308,60.80249 -30.1358,29.74842 12.23,-22.75015 -17.3877,9.27515 -29.9089,10.39489 -12.6641,8.57097 -19.9489,38.92908 -20.4523,62.02195 -7.3085,43.98436 -15.8633,-12.05031 -24.2906,-9.07873 -13.0872,0.22732 -22.4082,11.21359 -26.6719,39.77339 -4.4605,40.80305 -12.3238,-20.862 -17.7052,-32.98661 -7.3201,41.42318 -15.5068,-11.1219 -17.1061,-27.29601 -17.0635,-10.65489 -11.2343,-63.62607 -20.1798,-44.81751 8.1263,0.47296 -23.4146,-4.47615 -27.2616,-10.74487 -1.593,-0.69535 -7.9239,55.97848 -16.3175,54.71444 -0.9542,25.59042 -19.4852,-20.47563 -17.0746,5.55225 -10.6811,-14.87951 -17.4365,-3.80672 -21.9897,-32.90322 -15.682,14.09197 -5.6684,48.50955 -10.4329,70.19815 0.4568,-58.1798 1.0227,106.57716 -11.8123,48.41418 3.0619,-52.05069 -18.847,6.60349 -23.4743,-5.32513 -9.9358,-20.7162 -22.7798,-26.31374 -31.3512,-39.17228 -3.1795,28.92739 -25.812,9.72771 -27.1505,44.14071 6.557,-12.0917 -25.8929,29.98159 -20.5481,56.43063 -3.316,20.93109 5.5051,72.70165 -11.3495,32.21362 0.6407,-39.13147 -18.2196,17.59952 -25.3819,24.41504 -10.5151,38.123 -24.597,3.12715 -27.4713,34.40362 -5.2877,49.60749 -13.9438,-15.89494 -17.9861,-22.2973 -15.3681,12.16255 -17.9723,-48.55209 -31.9326,-35.96632 -6.0786,-46.54174 -6.4963,-11.41016 -11.72,16.12 -1.815,-2.78097 -19.0085,-58.27614 -21.9688,-10.83814 -1.8034,21.19026 -11.1099,56.36022 -17.9012,55.44814 -10.5789,30.26721 -4.8408,45.45052 -18.76,11.62 -19.0256,-7.28694 -7.0057,-33.24879 -20.5594,-8.57795 -9.4857,-42.99118 -8.0891,-90.44613 -9.9306,-135.50205 -15.4092,-22.1189 -17.2658,-40.13691 -22.0279,-65.8686 -5.9686,-55.08851 -10.5973,22.79673 -22.5321,1.8886 -8.7432,-34.55912 -8.2823,1.73806 -18.9192,2.22486 -0.2154,16.18517 -2.2499,74.75409 -18.6008,36.88514 -14.1356,-1.4735 -19.1412,35.95484 -18.76,54.73 -15.82005,43.5337 -20.95647,-34.75209 -24.99785,6.26149 -5.36248,23.51804 -6.32032,47.30525 -16.5743,66.24898 -12.84995,33.05728 -18.09807,-43.14793 -19.95547,-9.81936 -2.83147,33.08313 -14.91732,45.25077 -18.21243,24.40889 -12.3582,-24.00461 -12.624,2.6707 -22.87472,-14.21983 -7.74446,12.51511 -4.05448,49.76256 -7.83086,0.70694 7.2768,55.06242 -4.23405,-105.30901 -12.25024,-41.39857 6.94048,29.72806 -16.19559,39.27866 -16.83525,15.69165 -0.80292,-57.23272 -8.37699,24.06105 -17.59893,-13.14019 -3.8559,-17.714 -0.95667,-68.38982 -7.04,-65.48 -12.69931,-14.00311 -12.46864,-74.57771 -16.42,-28.99 -14.28374,-35.49876 -16.62024,29.19651 -23.45,-22.87 1.94642,-32.99618 -10.11892,-34.0322 -14.62663,-64.75787 -5.52148,-16.7874 -4.20616,-60.26286 -15.22803,-60.04682 -8.68673,35.31479 -2.29019,32.7605 -12.93207,2.24789 -8.12447,16.78395 -33.278,-27.19633 -27.46838,22.84088 1.98843,33.8784 -9.90683,51.90816 -14.16489,8.49592 -11.17258,-22.44206 1.47306,-56.35261 -15.50706,-69.0584 -5.55203,-40.68823 -5.70426,17.38323 -17.91558,25.02336 -5.53037,29.04852 0.62963,64.67532 -11.4866,17.82994 4.32059,-7.80654 -3.94995,44.59464 -9.34109,63.31848 -0.21626,40.11866 -12.02075,16.34601 -25.48967,19.61662 1.52173,50.88332 -7.86839,-19.87049 -18.17421,28.89165 -2.39836,6.79772 -3.16139,-46.60691 -9.02857,-62.7875 -6.30764,-52.27204 -10.14643,33.77597 -15.92133,-2.99468 -8.58467,31.29541 -11.97668,-54.34113 -19.83808,-0.10082 -6.44575,29.80276 -6.91613,14.58513 -16.17591,51.59393 4.34922,5.55388 -10.70707,-11.15652 -12.01258,-38.33587 -12.75182,-9.29183 -10.23164,69.46615 -13.72108,42.68973 -1.29742,29.11988 -7.41276,14.41253 -10.71605,-22.94213 -1.16068,56.33019 0.97944,-93.74343 -12.34618,-54.4558 -13.57297,38.71333 -7.49501,-12.88467 -12.32453,-33.53417 2.23843,-3.07176 -9.00682,70.6654 -14.84858,16.0083 0.485,-27.40737 -0.47019,-49.90485 -14.27201,-65.37069 -13.61186,4.75818 -10.21412,-73.2424 -15.89089,-23.85195 -0.78333,-30.91 -1.56667,-61.82 -2.35,-92.729998 -9.77418,20.340898 -9.23934,54.318538 -16.19487,79.578738 -9.78059,42.88549 -9.35323,26.22822 -24.62263,0.57145 -13.82709,11.50377 -17.35386,-23.08653 -22.59996,-40.02026 4.63794,34.09218 -16.49614,18.37756 -24.01769,25.02787 -8.34642,-38.24503 -6.74126,-19.101 -11.97115,-10.14046 -7.62147,-22.76731 -14.75146,-29.01578 -27.30775,-43.010118 -14.3377,-34.260827 -19.08613,21.331908 -31.31691,33.457848 1.86035,42.16209 -16.32034,7.92826 -17.85904,40.01493 0.64402,28.95852 -3.68181,-81.753738 -14.77181,-45.04928 -3.44698,27.24204 -3.91095,-41.680608 -6.05965,-56.291942 2.36005,-8.795571 -11.04971,46.943302 -13.8201,62.115532 -6.30389,29.85754 -16.63425,48.3343 -21.62844,8.10569 -9.55705,38.11579 -12.42259,10.50949 -16.73701,12.90345 -9.40612,45.77734 -12.08789,1.80301 -20.37567,27.12575 -10.11165,13.82347 -3.889,-38.9186 -20.5732,-44.23435 -11.52361,10.7409 2.3667,53.92357 -15.82352,45.95689 -12.96511,13.20562 2.35988,-67.71133 -16.6859,-48.20012 2.97396,4.74389 -27.061434,-28.68774 -21.55659,-47.664588 C 97.940061,64.09423 102.23129,128.85147 87.667351,131.9513"
       id="path61"
       transform="matrix(0.13225508,0,0,0.0870627,-10.159578,-4.0690267)"
       mask="none" />
    <path
       style="mix-blend-mode:saturation;vector-effect:non-scaling-stroke;fill:none;stroke:#858585;stroke-width:2.00362;stroke-miterlimit:2;stroke-dasharray:none;stroke-opacity:0.710542;filter:url(#filter1480)"
       d="m 1799.6674,57.471302 c -2.2475,17.0063 -11.944,30.25291 -16.42,46.489998 4.4943,-13.428408 -14.8571,37.84717 -18.9151,56.65236 -2.4606,23.20602 1.885,56.88424 -4.8068,73.60319 -12.6508,-27.74379 -11.3933,30.20619 -28.0205,13.53207 -1.8152,28.33645 -22.9649,-0.20807 -27.9876,39.28238 -9.1252,44.90115 -16.9972,-18.87328 -35.18,10.37 0.3324,-29.4925 -25.002,14.26764 -22.1423,30.68274 -12.8906,14.83276 -9.0242,46.69576 -18.7577,60.56141 -16.9148,-10.48792 -8.5116,-53.74748 -27.1813,-25.3 -0.7717,-25.32195 -19.7458,30.23041 -16.3487,47.01585 -5.0638,45.80557 -5.7684,14.67151 -12.9604,5.37501 4.2429,-3.45258 -1.6458,-73.12296 -15.1796,-24.24501 -2.1539,-38.05898 -7.7345,-26.52037 -8.766,-54.84626 -12.8656,-23.20679 -14.4441,-10.48668 -14.2736,-51.34809 -10.4327,-29.44253 -16.9207,61.7468 -15.25,20.15705 4.5896,-51.38112 -15.3354,-4.55162 -15.6504,-21.9227 -4.114,21.07594 -8.461,44.47691 -24.8026,59.00161 -16.0536,-15.43385 0.2043,-12.23778 -19.7574,5.97839 -2.6765,-53.29842 -0.019,8.69889 -16.42,-31.12 -5.1164,38.57499 -5.382,78.4214 -8.3298,117.5252 1.9921,46.63406 -13.7971,6.97996 -11.4304,-17.33068 -4.9977,-44.39894 -15.2213,27.23332 -29.4898,-3.59452 -3.27,-24.61857 -13.725,-32.19724 -21.1,-25.37 0.091,-13.90513 -21.9604,11.05897 -28.15,26.99 -1.306,28.47111 -16.8322,22.02983 -21.235,47.40325 -2.2017,18.64664 1.2075,71.14132 -4.555,68.30675 -9.005,-26.39892 -11.4524,-43.63307 -24.4193,-13.65596 5.3435,-8.58664 -18.6764,43.50241 -26.1407,40.17222 -14.975,-19.50265 -8.1187,70.81259 -22.2743,24.9871 5.2223,-40.67202 -14.6399,-13.66424 -20.0455,-48.58546 -9.9006,-12.06138 -18.4542,-40.98374 -29.4592,-7.84123 -3.1855,-12.03589 -18.8324,-51.02117 -22.0768,-1.12995 -1.4023,29.03185 -16.7169,42.448 -18.5526,63.22069 -6.6664,40.1999 -13.9724,35.62661 -13.1935,-0.92172 -16.9582,15.00588 -10.8557,-30.76409 -27.8781,-1.13569 -4.5278,-31.23691 -5.8024,-62.65664 -5.9321,-94.1986 1.0005,-27.19829 0.038,-51.7366 -13.7308,-70.97581 -10.3179,-18.81296 -11.806,-54.87688 -16.3893,-67.51042 1.6159,20.40257 -14.464,55.24616 -20.6819,19.32282 -1.6473,8.46812 -17.969,13.13009 -14.4154,28.11779 4.0515,43.40703 -12.3511,17.00364 -22.9704,27.18585 -18.47497,11.49765 -11.7174,44.90788 -23.14015,62.58837 -19.72395,-35.42129 -19.19117,16.67068 -21.1,34.12 -14.51907,3.70328 -12.03302,70.94455 -16.42,35.86 -7.85514,-41.67831 -17.91327,-0.1514 -26.29214,20.51047 -1.3274,-19.41393 -14.56189,8.56191 -17.72221,-24.1569 -2.788,15.14013 -5.336,-10.95461 -12.5411,2.28023 -6.13747,48.37388 -7.48277,5.3912 -8.23676,-20.70284 3.98716,-42.85783 -15.06899,-33.95205 -11.88021,4.05573 -5.97836,43.43068 5.57565,15.62792 -14.78758,7.89331 -10.14548,-27.32038 0.34646,-57.59134 -16.42,-17.5 -3.36754,11.16659 -4.66111,-48.78465 -6.7074,-66.22425 -4.14554,7.00684 -14.499,-42.86826 -14.4026,-63.98575 -8.60016,21.41329 -17.60657,-29.34738 -21.1,20.12 -16.16932,-13.27184 -5.43899,-49.73361 -15.0236,-56.88949 -2.92626,12.87061 -10.58975,-54.8705 -11.36639,-65.96403 -4.6936,-17.74007 -7.88413,-41.16306 -14.03216,6.17441 -3.38072,20.91083 -3.71964,-58.15542 -21.8972,-31.92289 -12.80032,-23.8978 -11.80134,-0.86395 -15.53505,29.90505 -0.45391,24.6416 -5.89783,72.65858 -11.90675,23.40331 1.13672,-31.42408 -9.18952,-29.04317 -7.71039,-63.73235 1.98478,-20.85177 -16.57627,-45.35589 -15.2104,-29.38523 -11.51015,19.02449 -14.2156,44.01129 -15.15835,70.08865 -0.33526,26.54311 -14.73309,-45.12089 -13.35338,12.76166 -4.63918,22.6485 -0.53676,50.12688 -17.4166,51.40035 -2.62111,-25.45726 -13.02203,-3.86449 -15.24954,19.18593 -1.84238,-48.90275 -17.61592,45.29865 -18.45019,-4.50537 -6.5018,23.62615 -0.0882,-41.96447 -7.30399,-53.70999 -7.62067,-19.02946 -8.26859,21.86237 -14.25886,-6.459 -10.53872,58.38237 -7.67606,-47.46498 -13.61715,-10.94101 -8.90974,5.43109 -7.52004,49.78234 -14.99534,55.39331 -11.21014,28.57294 -14.15362,-14.92448 -16.90761,24.11054 -6.36856,23.46625 6.28632,-62.52446 -10.30705,-43.51385 -7.35893,81.14589 -8.3344,162.66755 -9.38,244.18 -5.18629,-97.06844 -5.87883,-194.43612 -12.84656,-291.35045 -2.74238,8.16343 -20.52199,13.37019 -14.29022,44.73381 -0.85959,50.02214 -2.26481,-3.23072 -3.64229,-24.87232 1.73897,-46.56723 -8.02594,-25.58916 -12.56581,7.20229 -3.64422,29.00383 -4.95743,-37.46344 -5.71289,-50.23992 -4.09011,-17.17261 -4.57691,-64.74364 -16.61223,-61.86341 -10.02295,-38.21405 -10.34811,-38.47522 -11.72,1.63 -2.36942,-36.08225 1.40601,-73.67196 -4.69,-108.84 -9.84553,47.64215 -20.90153,94.95022 -25.8,143.45 -3.67563,-25.57318 2.43842,-56.12295 -13.18584,-77.82255 -11.04885,7.57718 -14.10252,10.43768 -19.64416,-25.64745 -14.79739,9.13432 -19.24117,17.05402 -27.21731,13.02215 -8.88033,-60.85538 -8.3128,33.68689 -12.65269,-4.64215 -9.89039,-31.44701 -10.60456,-33.31339 -24.44089,-44.69063 2.65815,10.29802 -7.99836,33.72604 -15.42911,-12.41937 0.24161,29.05348 -14.14449,29.03356 -19.02536,56.10324 0.58665,44.56259 -17.1497,-9.35393 -16.15464,36.11676 -6.47929,22.39057 -3.40174,-73.02629 -9.1467,-41.8613 -5.97024,44.62683 -9.27098,28.57364 -9.39269,-7.23662 -0.98456,-34.76528 -7.85409,-48.040898 -13.54767,-6.70635 -2.15717,17.87594 -6.48058,49.07792 -15.67245,42.76249 -3.52074,-43.1307 -17.6835,19.55657 -21.79057,-7.13413 1.14938,-9.72167 -18.35114,36.39907 -20.54873,22.35641 -15.95957,38.14584 -8.17901,-26.53791 -15.43119,-33.4205 -11.83299,39.49409 -7.23795,-39.22109 -14.34712,14.96665 3.40768,25.07483 -17.89688,66.11427 -16.14288,19.02335 -6.00079,-27.96451 -14.24983,-32.91187 -16.42,-53.61 -19.92931,18.8251 -10.4699,11.56594 -15.59542,-25.35235 1.17371,-25.568268 -10.102502,32.43961 -17.234579,39.97235"
       id="path75"
       transform="matrix(0.13225508,0,0,0.0870627,-10.159578,-4.0690267)"
       mask="none" />
    <path
       style="mix-blend-mode:saturation;vector-effect:non-scaling-stroke;fill:none;stroke:#858585;stroke-width:2.00362;stroke-miterlimit:2;stroke-dasharray:none;stroke-opacity:0.710542;filter:url(#filter1480)"
       d="m 1799.6674,51.101302 c -10.0279,-0.161718 -2.4017,28.32365 -12.1686,36.40576 10.6967,-2.49686 -9.0211,49.289798 -23.0114,53.014238 -0.7057,27.76586 -1.4114,55.53172 -2.117,83.29758 -12.2584,-3.22522 -11.5793,20.67405 -28.373,28.30242 -17.1948,2.95126 -27.2014,4.72704 -32.1994,35.10793 -7.9389,29.19487 -24.9176,-11.29824 -34.7653,3.00336 -14.9896,-9.59608 -20.91,44.53065 -26.305,37.73858 -7.375,1.89194 -4.3909,60.01124 -16.7456,50.6473 -3.5054,6.7801 -11.6007,-40.70713 -29.7532,-22.17964 -13.2615,19.44097 -11.2117,41.35773 -14.4249,66.40423 -4.6941,-18.32436 -12.6477,-24.315 -12.0489,-55.60231 -8.944,8.75202 -14.888,26.73351 -19.7564,-12.78307 -4.6005,-21.31227 -18.1125,-40.19353 -15.0591,-67.02321 -1.765,6.16637 -10.6028,7.91139 -27.5427,2.755 7.752,-4.02159 -12.3725,40.42611 -23.0677,55.34096 -20.1937,18.18008 -2.2824,-25.33199 -25.0618,1.72087 2.3,-41.44471 -11.3669,10.23174 -18.76,-35.4 -2.1221,37.41845 -3.1989,74.90194 -6.0473,112.27461 -2.9648,38.82324 -11.4705,48.35047 -10.8106,3.23234 4.746,-48.54159 -16.7954,0.94556 -22.0224,-2.9224 -15.8503,-16.33421 -12.5256,-34.47252 -33.8197,-37.19455 -8.3725,29.22273 -23.5869,-0.4098 -25.2884,40.32231 -5.5349,41.19121 -4.4145,6.9326 -10.6798,19.2864 -13.8036,23.68816 -7.767,60.93535 -10.5419,92.25449 -0.9908,37.4981 -8.9761,-45.79084 -21.9983,-20.53265 -10.1514,27.77072 -10.2533,22.13393 -24.3866,46.22424 -14.7927,-3.4327 -20.6185,15.70357 -22.025,44.46521 -12.6091,-15.17313 -4.4244,-62.45002 -15.4074,-41.95155 -14.1344,-2.04752 -7.8677,-26.39645 -22.891,-37.55196 -0.6795,-38.13127 -23.5319,37.34782 -23.8364,-8.08164 -14.7629,-38.20844 -18.6836,17.15145 -19.9452,33.53515 -9.996,29.5386 -14.1774,24.66959 -19.0387,46.80647 -6.4439,59.16807 -7.2346,-12.41689 -13.7913,-1.98647 -21.797,-11.02722 -5.6158,-25.86592 -23.46,-4.72 -7.6583,-44.37092 -3.4553,-90.02663 -8.2634,-134.52684 -14.4973,-22.52239 -18.2657,-34.57806 -24.5666,-62.61316 -5.1,-51.42012 -1.2216,-1.73681 -16.41,14.56 -6.5833,-29.74654 -3.7632,-14.68112 -10.4555,-28.00395 -13.0441,23.9808 -11.6825,25.82244 -14.5778,61.72226 -6.5778,11.24382 -25.1119,-21.87 -30.6563,11.86535 1.6873,14.4473 -13.59391,64.14468 -20.47007,35.30759 -9.74928,-25.92865 -13.48744,35.05302 -14.43376,48.06015 3.89418,-10.22733 -20.32701,62.67871 -16.90497,19.5796 -10.78682,22.45487 -12.12271,-38.42883 -13.89703,-5.79215 -5.4188,37.92348 -11.37073,31.11442 -24.15317,32.62577 -5.02759,-13.48644 -5.68345,-40.64447 -9.24145,4.40538 -1.85221,-43.2018 -14.86298,-32.55425 -11.72,4.74 -2.91399,-13.48902 -4.89675,-45.26587 -4.43334,-63.0385 -4.06759,-14.44958 -13.72667,-36.66657 -10.99887,9.84128 8.01801,42.58948 -23.35425,15.57364 -17.40779,-12.89278 -2.79705,61.98735 -3.1906,-32.98928 -7.03,12.05 -12.77801,48.06523 -9.96222,-3.86907 -11.73,-26.41 -1.35105,-27.05197 -2.42568,-54.13018 -15.19153,-67.46457 -4.23247,-55.90871 -0.6322,10.76463 -16.25806,-24.64061 -5.57911,17.36855 -18.40534,35.75831 -15.89504,-11.1381 -3.73881,-32.13499 -0.26754,-14.66344 -13.71332,-50.01867 -1.7431,-33.96335 -3.68329,-29.48077 -9.29205,-60.70805 -15.71093,-30.47857 -3.87269,70.98708 -12.52512,20.0764 -1.05644,-27.65588 -23.46172,-19.32097 -22.7496,-20.1617 -11.10575,-28.17681 -9.3935,34.8857 -11.16535,47.19264 -4.70587,16.9082 -13.93846,32.24619 -11.94077,-11.56679 -11.90469,-21.06755 2.61609,-52.44589 -14.32916,-69.38055 -10.27128,-27.1915 -13.88548,37.99571 -19.77078,19.306 -4.4208,14.12089 0.0624,72.9076 -6.01922,57.024 -4.39975,-33.03227 -8.53547,-60.67076 -8.90744,-11.42252 -2.75949,16.98037 -3.84835,61.86688 -15.88714,57.1434 -5.61445,17.78471 1.37579,4.92737 -15.15835,-6.30048 -1.62,54.27619 -1.10039,-8.57206 -17.64712,25.39457 -7.52151,11.83342 -5.91519,0.20977 -8.58203,-32.39885 -4.04735,-47.13215 -14.40717,0.3557 -14.97335,-22.84078 3.47666,2.60914 -14.46397,20.4938 -12.65457,-23.26534 -12.97296,22.08718 -14.55207,49.7193 -16.42,75.87 -0.10349,-50.85439 -7.68944,5.99989 -12.54647,5.97199 -4.73797,-48.60282 -4.44134,-16.70333 -5.84561,14.71047 -4.41297,-15.9587 4.63444,-47.11984 -9.74792,-58.74246 -9.0516,39.80007 -1.84825,83.0303 -9.38,123.26 -10.39589,-33.20563 -7.21305,-68.08003 -9.01127,-102.34229 -1.98222,-16.84601 -0.13156,-67.71898 -10.61899,-61.178 -12.30621,24.76755 -11.08532,52.37746 -11.8407,6.1855 -0.24286,-38.70383 -1.80651,-52.61828 -6.59564,-5.99397 -6.90863,41.64071 -12.01433,20.01379 -10.95976,-11.49932 -4.15453,-14.88414 -7.31714,-67.6601 -16.64364,-56.62192 -18.64236,-34.53925 -9.78059,-73.82659 -16.41,-112.2 -7.45519,25.47325 -10.29601,51.78231 -14.07,77.94 -12.32671,9.22811 -9.67299,66.7818 -12.18161,60.31037 -7.06645,-22.21158 8.23571,-58.02597 -15.96839,-70.33037 -7.96128,35.14256 -10.67963,7.50324 -18.77336,-20.06562 -6.62023,27.84347 -13.00511,-3.67968 -24.09318,12.99261 -9.99255,-40.69568 -10.36952,14.34287 -22.89938,-28.83352 -11.64698,-6.48079 -21.71981,-49.80841 -20.6521,-6.82696 -5.99937,-12.29784 -10.26017,-45.32651 -16.77198,-1.05651 -17.77914,1.20754 -7.87155,50.69276 -18.66347,45.59848 -11.65003,-47.82562 -8.36434,55.61802 -14.74236,3.6581 -1.32791,-49.80859 -14.67351,-12.89232 -11.15417,16.38342 -1.21237,-30.12323 -3.84526,-60.13774 -7.03,-90.11 -7.43785,15.79637 -11.96274,71.24696 -16.42,60.67 -7.76686,46.23751 -4.21886,18.18122 -19.41358,7.73006 -13.93377,31.82874 -9.24985,-18.80844 -19.64651,11.47951 -10.01683,46.8303 -9.50295,-33.86919 -15.60259,24.4355 -6.42901,14.30998 -7.14815,-5.65278 -9.45888,-34.846 -11.82352,32.89923 -11.93154,-45.30574 -15.54031,1.23648 0.36473,40.19377 -15.96547,20.95565 -13.76128,49.99391 -6.7309,-4.49066 3.53369,-68.18538 -12.10685,-48.00946 -0.20445,-29.829 -15.86244,-20.10279 -18.32617,-41.53387 -3.23891,22.49158 -3.62571,0.043 -5.46252,-26.82449 -4.541695,11.66996 -13.096232,48.40363 -16.081309,53.57836"
       id="path89"
       transform="matrix(0.13225508,0,0,0.0870627,-10.159578,-4.0690267)"
       mask="none" />
    <path
       style="mix-blend-mode:saturation;vector-effect:non-scaling-stroke;fill:none;stroke:#858585;stroke-width:2.00362;stroke-miterlimit:2;stroke-dasharray:none;stroke-opacity:0.710542;filter:url(#filter1480)"
       d="m 1799.6674,7.921302 c -3.3509,20.267028 -6.1717,40.181158 -14.914,58.604941 -2.5902,43.309997 -19.2074,82.947247 -21.4703,126.111267 -2.2183,21.0192 -23.7955,32.41087 -33.9757,52.30379 -21.3546,23.39092 -24.0854,6.36531 -44.6062,-1.90585 -18.4968,14.70092 -24.5784,38.02609 -33.9322,59.06313 -3.2328,17.91952 -27.2956,43.11818 -38.7216,17.94272 -18.7332,-13.09268 -14.4317,-39.31637 -25.8169,-57.31784 -1.418,-25.85968 -32.6149,-36.58494 -39.8431,-8.65216 -21.203,-11.70605 -36.1154,14.75299 -45.3259,30.97831 0.9307,-4.73363 -18.7062,-34.12543 -36.7541,-6.85831 -15.3989,18.04323 -24.5374,46.08533 -27.1254,71.16476 -0.5309,20.5008 -29.4688,19.98492 -45.5846,11.80524 -9.4352,-24.02961 -18.0983,-42.65505 -32.83,-10.09 -10.1378,30.21167 -20.1781,59.69434 -30.8822,89.68841 -2.8934,33.7538 -14.0556,31.71954 -26.2759,53.76821 -12.8241,34.35082 -27.3971,1.93453 -41.3419,-10.17662 -20.9608,-2.42705 -41.3032,-7.63449 -53.94,-22.8 -16.8079,17.88292 -32.7652,35.51063 -35.18,61.4 0.3738,-30.47728 -12.3475,-58.663 -12.6769,-89.10105 -2.2381,-44.66597 -17.968,-85.91845 -20.1531,-130.65895 -2.2806,-29.76987 -35.0611,-32.49819 -29.442,1.30316 9.542,38.80417 -28.0816,18.95039 -36.218,40.68684 -22.3094,-14.13093 -26.7806,27.16211 -32.84,43.04 -28.0061,-8.12912 -28.9297,30.81037 -34.1897,49.5233 -15.93652,15.68613 -27.82248,39.92513 -29.84361,64.40267 -8.96297,40.80336 -17.7802,3.42377 -30.34072,-9.39836 -19.20272,-0.11968 -38.48341,-13.98123 -37.78662,-36.70315 -15.78024,-37.61259 -8.14935,-85.08914 -38.20666,-116.26378 -9.93266,-25.63489 -19.82667,-53.01896 -26.62274,-80.39068 -10.16094,-16.38738 -19.44193,-33.7668 -32.84,-50.02 -15.70353,-0.37604 -23.05482,45.7671 -38.8118,17.71552 -6.71325,-18.77907 -16.27639,-41.5454 -41.57845,-31.52989 -24.40662,-28.2041 -35.78131,1.61343 -36.17557,28.65201 -13.26463,19.69745 -6.40424,47.91359 -20.95231,66.27184 -9.77869,38.61782 -24.95032,-4.84391 -38.37187,-15.14948 -18.02184,1.17725 -42.67424,16.10641 -39.87,-15.1 -23.00451,11.95681 -35.88584,-17.76827 -49.24,-33.54 -16.07674,-9.12256 -6.94046,-76.50644 -23.46,-44.47 -9.93078,-29.78234 -9.08572,-62.43502 -18.76,-92.769998 -14.35326,-36.168357 -17.47764,18.584188 -35.48253,14.887388 -25.55288,-19.788298 -22.29495,30.96654 -47.3239,14.94642 -9.6518,22.38126 -32.0169,-11.22748 -36.79357,-24.253808 -16.17552,-15.34022 -35.36953,-10.19748 -51.6,-19.03 -20.84898,3.32477 -28.31742,17.25858 -51.8925,20.56631 -28.11961,-5.28669 -33.722,16.221588 -40.63466,39.267788 -10.06044,11.14526 -36.96952,-0.36821 -51.79435,-6.17632 C 171.52744,117.03855 171.66656,84.272392 148.25646,83.984982 130.93584,98.402112 129.50204,35.375 108.56824,63.551438 99.115264,74.989522 92.275664,107.61699 87.667351,129.0213"
       id="path117-7"
       transform="matrix(0.13225508,0,0,0.0870627,-10.159578,-4.0690267)"
       mask="none" />
    <path
       style="mix-blend-mode:saturation;vector-effect:non-scaling-stroke;fill:none;stroke:#858585;stroke-width:2.00362;stroke-miterlimit:2;stroke-dasharray:none;stroke-opacity:0.710542;filter:url(#filter395)"
       d="m 1799.6674,290.3613 c -2.3434,8.43089 -4.7279,18.32562 -14.07,21.36 -20.7191,6.76734 -20.8556,-28.74878 -42.21,-4.64 -26.3695,-6.98143 -42.6156,17.78731 -43.1646,41.36396 -2.3685,21.26287 -12.8802,45.56085 -34.2354,50.45604 -20.9416,-12.43143 -22.5587,22.87284 -47.2271,10.10487 -21.0228,4.55607 -34.7917,44.2829 -44.5261,4.19611 -4.5617,-24.67239 -19.6729,-44.4235 -23.1568,-69.12098 -11.8943,-22.57506 -28.0816,30.48599 -46.91,9.57 -11.7179,9.37423 -13.4036,43.0644 -16.41,62.27 -6.8034,18.90463 -16.58,49.4045 -35.768,52.43832 -19.4194,-11.93534 -17.7463,-42.98925 -39.5851,-49.18978 -33.6637,4.75075 -25.6808,47.33853 -32.9359,72.3342 -4.7855,25.58298 -15.1794,46.33708 -27.731,67.78726 -17.4651,16.14049 -30.9213,19.3317 -46.91,33.18 -15.5343,-22.70382 -37.031,10.89848 -51.59,-8.62 -4.96,-16.63401 -24.3037,-55.28252 -31.2703,-18.80884 -11.6139,19.86041 -7.9248,56.6692 -35.0549,60.90829 -24.2907,-26.82861 -15.1563,10.8225 -27.4848,33.05055 -10.8762,36.60014 -23.7474,-9.73677 -30.49,-23.89 -3.1838,-46.11346 -17.8342,-90.22066 -19.2378,-136.3509 -6.681,-21.01955 6.782,-58.29559 -13.5922,-68.7191 -24.5507,0.96347 -28.6666,31.77589 -35.649,50.32655 -5.4773,22.75945 -24.7554,28.13909 -32.7975,52.92163 1.5986,27.61811 -16.3988,35.30527 -30.97603,48.23291 -13.39418,39.21432 -28.77704,-36.76134 -41.28752,5.42891 -19.90128,21.13029 -35.78095,-22.85425 -49.25,-6.76 -17.91075,16.73972 -25.20896,-3.67409 -39.87,-21.91 -2.38516,-23.60233 -20.62225,-40.01521 -19.94471,-63.95246 -0.5254,-36.40251 -38.41662,-55.78578 -38.68529,-92.18754 -15.12784,-23.60263 -1.63382,-65.0374 -30.49,-77.89 -13.64526,15.06688 -36.38654,0.96872 -46.9,18.53 -20.2054,13.00157 -13.80882,40.98732 -30.49,55.96 -10.94143,25.69661 -30.54389,-12.31228 -46.91,-5.73 -20.25111,4.074 -33.94883,-9.92675 -44.8572,-14.23574 -23.36895,7.09927 0.57853,53.32745 -23.50777,61.03839 -22.21795,11.93412 -36.60604,-11.69971 -51.23503,-1.43265 -6.81841,-23.91094 -9.51827,-49.07273 -13.4852,-73.67152 6.59676,8.00369 -24.37937,15.63451 -23.29138,-27.08429 -20.17319,-23.70204 -6.35787,-63.12504 -25.33157,-88.40432 -10.32024,-17.89511 -28.97576,-34.97392 -48.77276,-38.65039 0.81502,-25.15736 -16.28933,-40.56816 -36.86909,-38.64948 -19.20211,2.63076 -28.56038,-35.09 -40.29358,-4.17418 -7.13182,20.05789 -24.80494,28.39763 -46.47642,23.92418 -13.64384,14.62233 -37.96638,-9.07364 -46.91,14.34 -14.35356,-12.46103 -38.74821,-9.91925 -47.85317,6.64994 -26.2468,1.29274 -33.97573,-3.35128 -56.2163,-5.62482 -16.56779,-21.73909 -13.16059,31.87557 -22.07798,44.16829 -0.52833,30.69147 -17.92077,55.52969 -20.04592,85.50437 0.56513,26.38425 -18.470002,44.78082 -17.966629,71.89222"
       id="path103"
       transform="matrix(0.13225508,0,0,0.0870627,-10.159578,-4.0690267)"
       mask="none" />
  </g>
  <g
     inkscape:label="Layer 1"
     inkscape:groupmode="layer"
     id="layer1">
    <rect
       style="fill:#1c1f24;fill-opacity:1;stroke:#000000;stroke-width:0.234737;stroke-miterlimit:2"
       id="rect175"
       width="69.765259"
       height="69.765266"
       x="227.85558"
       y="0.1173685" />
    <g
       id="g113"
       transform="matrix(0.99937765,0,0,0.99999997,227.83198,0.47434993)">
      <path
         id="path46"
         style="fill:#ffffff;stroke-width:0.210608"
         d="m 64.171413,34.52565 a 30,30 0 0 1 -30,30 30,30 0 0 1 -29.9999996,-30 30,30 0 0 1 29.9999996,-30 30,30 0 0 1 30,30 z" />
      <path
         id="path46-6"
         style="fill:#1c1f24;fill-opacity:1;stroke-width:0.210608"
         d="m 60.163059,34.523792 a 26,26 0 0 1 -26,26 26,26 0 0 1 -25.9999998,-26 26,26 0 0 1 25.9999998,-25.9999997 26,26 0 0 1 26,25.9999997 z" />
      <path
         id="path73"
         style="fill:#ffffff;fill-opacity:1;stroke-width:0.210608"
         d="m 27.120293,33.898571 a 3,3 0 0 1 -3,3 3,3 0 0 1 -3,-3 3,3 0 0 1 3,-3 3,3 0 0 1 3,3 z" />
      <path
         id="path73-5"
         style="fill:#ffffff;fill-opacity:1;stroke-width:0.210608"
         d="m 48.287586,33.895031 a 3,3 0 0 1 -3,3 3,3 0 0 1 -3,-3 3,3 0 0 1 3,-3 3,3 0 0 1 3,3 z" />
      <path
         style="fill:#ffffff;fill-opacity:1;stroke-width:0.796001"
         d="m -152.22015,12.340795 c -3.98354,-0.754496 -7.3801,-3.827412 -8.66062,-7.8353887 -1.89756,-5.9392894 1.89458,-12.5286031 8.12293,-14.1146046 5.38992,-1.3725047 11.11193,1.7058805 13.18776,7.094894 0.62642,1.62625279 0.79543,4.6971541 0.35536,6.4569086 -0.78294,3.1307782 -3.13543,6.0515805 -5.94173,7.3771317 -0.82643,0.390362 -1.87968,0.799314 -2.34055,0.908777 -1.40008,0.332544 -3.31933,0.37817 -4.72315,0.112282 z"
         id="path117"
         transform="matrix(0.26458333,0,0,0.26458333,63.842506,33.553603)" />
      <path
         style="fill:#ffffff;fill-opacity:1;stroke-width:0.796001"
         d="m -72.059284,12.349054 c -8.688125,-1.682165 -12.233062,-11.91661949 -6.422192,-18.541266 2.774553,-3.1631113 7.64947,-4.537043 11.637105,-3.2797664 2.38496,0.7519635 5.080557,2.8674892 6.332281,4.9696236 2.418556,4.06170796 2.050763,9.1723683 -0.926713,12.8770812 -2.481682,3.0878206 -6.818039,4.7105436 -10.620481,3.9743276 z"
         id="path119"
         transform="matrix(0.26458333,0,0,0.26458333,63.842506,33.553603)" />
    </g>
    <g
       aria-label="FeaturesAnalyzer"
       transform="translate(-63.350776,-90.069795)"
       id="text151-6"
       style="font-style:normal;font-weight:normal;font-size:24.6944px;line-height:1.25;font-family:sans-serif;white-space:pre;shape-inside:url(#rect153-3);fill:#000000;fill-opacity:1;stroke:none">
      <path
         d="m 78.024972,121.28344 v -19.75552 h 3.272008 v 19.75552 z m 4.815408,-16.86627 v -2.88925 h 3.642424 v 2.88925 z m 0,8.28497 v -2.88925 h 3.39548 v 2.88925 z"
         style="font-style:normal;font-variant:normal;font-weight:800;font-stretch:normal;font-size:24.6944px;font-family:'Big Shoulders Stencil Text';-inkscape-font-specification:'Big Shoulders Stencil Text Ultra-Bold'"
         id="path288" />
      <path
         d="m 87.643404,117.41877 q -0.03704,-0.6544 -0.06174,-1.61748 -0.01235,-0.96309 -0.01235,-2.00025 0.01235,-1.04951 0.02469,-1.9632 0.01235,-0.9137 0.04939,-1.45697 0.135819,-2.03729 1.086554,-3.00037 0.950734,-0.97543 2.950981,-1.1236 v 2.53118 q -0.691443,0.2099 -0.716138,1.0989 -0.03704,1.5187 -0.06174,2.77812 -0.01235,1.24706 0,2.46944 0.0247,1.22237 0.06174,2.6423 0.0247,0.92604 0.716138,1.16064 v 2.55587 q -2.086677,-0.14817 -3.00037,-1.1236 -0.913693,-0.97543 -1.037165,-2.95098 z m 4.45734,-2.98802 v -2.25954 h 1.827385 q 0,-0.74083 0,-1.39523 0,-0.66675 -0.02469,-0.889 -0.03704,-0.83961 -0.666749,-1.08656 v -2.54352 q 2.000246,0.14817 2.913939,1.0989 0.92604,0.93839 1.024818,2.90159 0.01235,0.28399 0.01235,1.00013 0.01235,0.70379 0,1.56809 0,0.86431 -0.03704,1.60514 z m 1.135942,7.0626 v -2.54353 q 0.61736,-0.22225 0.666749,-1.19768 0.02469,-0.37041 0.02469,-0.8643 0.01235,-0.49389 -0.02469,-1.21003 h 3.247314 q 0.02469,0.20991 0.02469,0.77788 0.01235,0.55562 0,0.96308 -0.09878,2.01259 -1.024818,2.97568 -0.913693,0.96308 -2.913939,1.0989 z"
         style="font-style:normal;font-variant:normal;font-weight:800;font-stretch:normal;font-size:24.6944px;font-family:'Big Shoulders Stencil Text';-inkscape-font-specification:'Big Shoulders Stencil Text Ultra-Bold'"
         id="path290" />
      <path
         d="m 98.990446,112.03539 q -0.02469,-0.24694 -0.03704,-0.76553 -0.01235,-0.51858 0.01235,-1.01247 0.07408,-1.93851 0.92604,-2.90159 0.864304,-0.96308 3.025064,-1.0989 v 2.51883 q -0.71614,0.22225 -0.77788,1.0989 -0.0123,0.19756 -0.0123,0.6791 0,0.46919 0,0.91369 0,0.4445 0.0123,0.56797 z m 6.111864,9.24805 v -11.2483 q 0,-0.91369 -0.64205,-1.18533 v -2.59291 q 2.1978,0.14817 3.02506,1.22237 0.83961,1.06186 0.82726,3.28436 l -0.0247,10.51981 z m -6.581058,-3.22262 q -0.02469,-0.23459 -0.02469,-0.55562 0,-0.33337 0.02469,-0.55562 0.07408,-0.97543 0.4445,-1.67922 0.382763,-0.71614 1.172988,-1.25942 0.80256,-0.54327 2.14841,-1.02482 0.32103,-0.12347 0.62971,-0.22224 0.32102,-0.11113 0.64205,-0.20991 v 2.12372 q -0.12347,0.0494 -0.24694,0.11113 -0.11113,0.0617 -0.2346,0.12347 -0.77787,0.33337 -1.01247,0.889 -0.2346,0.54327 -0.25929,1.16063 -0.0247,0.32103 -0.0247,0.4692 0.0123,0.13582 0.0247,0.39511 0.11112,1.29645 1.44462,1.29645 0.18521,0 0.30868,-0.037 v 1.95086 q -0.59267,0.43215 -1.62983,0.43215 -1.65453,0 -2.457093,-0.77787 -0.802568,-0.77788 -0.950735,-2.62996 z"
         style="font-style:normal;font-variant:normal;font-weight:800;font-stretch:normal;font-size:24.6944px;font-family:'Big Shoulders Stencil Text';-inkscape-font-specification:'Big Shoulders Stencil Text Ultra-Bold'"
         id="path292" />
      <path
         d="m 109.67076,108.93624 v -2.46944 h 1.43227 v -4.19805 h 3.3214 v 15.48339 q 0,0.80257 0.38276,1.06186 0.39511,0.25929 1.37054,0.25929 0.33338,0 0.62971,-0.0123 0.29633,-0.0124 0.67909,-0.0124 v 2.34597 q -0.29633,0.0741 -0.61736,0.0988 -0.32102,0.0247 -0.70379,0.0247 -2.72873,0 -3.90171,-0.95073 -1.16064,-0.95074 -1.16064,-3.19793 v -8.43314 z m 5.939,0 v -2.46944 h 1.60514 v 2.46944 z"
         style="font-style:normal;font-variant:normal;font-weight:800;font-stretch:normal;font-size:24.6944px;font-family:'Big Shoulders Stencil Text';-inkscape-font-specification:'Big Shoulders Stencil Text Ultra-Bold'"
         id="path294" />
      <path
         d="M 118.94346,117.60398 V 106.4668 h 3.2967 l 0.037,11.40882 q 0,1.24706 1.29646,1.24706 0.29633,0 0.55562,-0.0741 v 1.93851 q -0.75317,0.53093 -1.80269,0.53093 -1.56809,0 -2.48178,-0.91369 -0.90135,-0.9137 -0.90135,-3.00037 z m 6.74157,3.67946 V 106.4668 h 3.3214 v 14.81664 z"
         style="font-style:normal;font-variant:normal;font-weight:800;font-stretch:normal;font-size:24.6944px;font-family:'Big Shoulders Stencil Text';-inkscape-font-specification:'Big Shoulders Stencil Text Ultra-Bold'"
         id="path296" />
      <path
         d="m 136.35301,109.08441 v -2.4324 q 0.50623,-0.27164 1.3088,-0.27164 0.29633,0 0.59266,0.0247 0.30868,0.0247 0.50624,0.0494 v 2.48178 h -1.06186 q -0.81491,0 -1.34584,0.14817 z m -4.91419,12.19903 V 106.4668 h 3.35844 v 14.81664 z"
         style="font-style:normal;font-variant:normal;font-weight:800;font-stretch:normal;font-size:24.6944px;font-family:'Big Shoulders Stencil Text';-inkscape-font-specification:'Big Shoulders Stencil Text Ultra-Bold'"
         id="path298" />
      <path
         d="m 139.93361,117.41877 q -0.037,-0.6544 -0.0617,-1.61748 -0.0123,-0.96309 -0.0123,-2.00025 0.0123,-1.04951 0.0247,-1.9632 0.0123,-0.9137 0.0494,-1.45697 0.13582,-2.03729 1.08656,-3.00037 0.95073,-0.97543 2.95098,-1.1236 v 2.53118 q -0.69144,0.2099 -0.71614,1.0989 -0.037,1.5187 -0.0617,2.77812 -0.0123,1.24706 0,2.46944 0.0247,1.22237 0.0617,2.6423 0.0247,0.92604 0.71614,1.16064 v 2.55587 q -2.08668,-0.14817 -3.00037,-1.1236 -0.91369,-0.97543 -1.03717,-2.95098 z m 4.45734,-2.98802 v -2.25954 h 1.82739 q 0,-0.74083 0,-1.39523 0,-0.66675 -0.0247,-0.889 -0.037,-0.83961 -0.66675,-1.08656 v -2.54352 q 2.00024,0.14817 2.91394,1.0989 0.92604,0.93839 1.02481,2.90159 0.0123,0.28399 0.0123,1.00013 0.0123,0.70379 0,1.56809 0,0.86431 -0.037,1.60514 z m 1.13595,7.0626 v -2.54353 q 0.61736,-0.22225 0.66675,-1.19768 0.0247,-0.37041 0.0247,-0.8643 0.0123,-0.49389 -0.0247,-1.21003 h 3.24731 q 0.0247,0.20991 0.0247,0.77788 0.0123,0.55562 0,0.96308 -0.0988,2.01259 -1.02481,2.97568 -0.9137,0.96308 -2.91394,1.0989 z"
         style="font-style:normal;font-variant:normal;font-weight:800;font-stretch:normal;font-size:24.6944px;font-family:'Big Shoulders Stencil Text';-inkscape-font-specification:'Big Shoulders Stencil Text Ultra-Bold'"
         id="path300" />
      <path
         d="m 156.40476,121.49335 v -2.50649 q 0.889,-0.2099 0.889,-1.23472 0.0123,-0.32102 0.0123,-0.4198 0,-0.0988 0,-0.18521 0,-0.0988 -0.0123,-0.39511 0,-0.49389 -0.2099,-0.80257 -0.2099,-0.30868 -0.76553,-0.45684 l -1.7286,-0.4445 q -1.71627,-0.45685 -2.60526,-1.30881 -0.889,-0.85195 -0.90135,-2.48178 0,-0.4692 0,-0.86431 0.0123,-2.03729 0.90135,-3.01271 0.88899,-0.98778 3.02506,-1.1236 v 2.53118 q -0.6544,0.19755 -0.6791,1.0989 0,0.0864 -0.0123,0.32102 -0.0124,0.2346 -0.0124,0.75318 0.0124,0.61736 0.22225,0.97543 0.2099,0.34572 0.85196,0.49389 l 1.5434,0.35807 q 1.71626,0.39511 2.58056,1.25941 0.87665,0.86431 0.87665,2.53118 0,0.24694 0,0.46919 0,0.20991 -0.0123,0.4445 -0.0123,1.97556 -0.92604,2.92629 -0.9137,0.95073 -3.03742,1.07421 z m 0.77788,-9.45796 q 0.0247,-0.45685 0.0247,-1.12359 0,-0.6791 -0.0247,-1.02482 -0.0494,-0.87665 -0.61736,-1.07421 v -2.55587 q 1.91381,0.14817 2.75342,1.0989 0.83961,0.93839 0.92604,2.90159 0.0123,0.19756 0,0.56797 0,0.37042 -0.0123,0.71614 0,0.34572 -0.0247,0.49389 z m -6.01309,5.38338 q -0.0247,-0.55562 -0.0123,-1.03717 0.0123,-0.48154 0.0371,-0.70379 h 2.92628 q -0.037,0.80257 -0.037,1.27177 0.0123,0.46919 0.0247,0.82726 0.0494,0.93839 0.75317,1.17298 v 2.54353 q -1.93851,-0.14817 -2.77812,-1.11125 -0.82726,-0.96308 -0.91369,-2.96333 z"
         style="font-style:normal;font-variant:normal;font-weight:800;font-stretch:normal;font-size:24.6944px;font-family:'Big Shoulders Stencil Text';-inkscape-font-specification:'Big Shoulders Stencil Text Ultra-Bold'"
         id="path302" />
      <path
         d="m 161.59054,121.28344 2.59292,-19.75552 h 5.81553 l 0.33337,2.88925 h -3.7165 l -0.18521,5.08704 -0.53093,4.40795 h 1.79034 l -0.76552,2.8769 h -1.3335 l -0.64206,4.49438 z m 7.56884,0 -1.37054,-11.79157 -0.16051,-3.87702 h 2.80281 l 2.08668,15.66859 z"
         style="font-style:normal;font-variant:normal;font-weight:800;font-stretch:normal;font-size:24.6944px;font-family:'Big Shoulders Stencil Text';-inkscape-font-specification:'Big Shoulders Stencil Text Ultra-Bold'"
         id="path304" />
      <path
         d="m 181.06203,121.28344 v -11.42116 q -0.0123,-1.23472 -1.39523,-1.23472 -0.25929,0 -0.61736,0.0864 v -1.83973 q 0.35807,-0.30868 0.82726,-0.46919 0.48154,-0.17286 1.16064,-0.17286 1.59279,0 2.4324,0.91369 0.85195,0.91369 0.8643,3.00037 v 11.13717 z m -6.84035,0 V 106.4668 h 3.27201 v 14.81664 z"
         style="font-style:normal;font-variant:normal;font-weight:800;font-stretch:normal;font-size:24.6944px;font-family:'Big Shoulders Stencil Text';-inkscape-font-specification:'Big Shoulders Stencil Text Ultra-Bold'"
         id="path306" />
      <path
         d="m 186.69233,112.03539 q -0.0247,-0.24694 -0.037,-0.76553 -0.0123,-0.51858 0.0123,-1.01247 0.0741,-1.93851 0.92604,-2.90159 0.8643,-0.96308 3.02506,-1.0989 v 2.51883 q -0.71613,0.22225 -0.77787,1.0989 -0.0123,0.19756 -0.0123,0.6791 0,0.46919 0,0.91369 0,0.4445 0.0123,0.56797 z m 6.11187,9.24805 v -11.2483 q 0,-0.91369 -0.64206,-1.18533 v -2.59291 q 2.1978,0.14817 3.02507,1.22237 0.83961,1.06186 0.82726,3.28436 l -0.0247,10.51981 z m -6.58106,-3.22262 q -0.0247,-0.23459 -0.0247,-0.55562 0,-0.33337 0.0247,-0.55562 0.0741,-0.97543 0.4445,-1.67922 0.38276,-0.71614 1.17298,-1.25942 0.80257,-0.54327 2.14842,-1.02482 0.32102,-0.12347 0.6297,-0.22224 0.32103,-0.11113 0.64206,-0.20991 v 2.12372 q -0.12347,0.0494 -0.24695,0.11113 -0.11112,0.0617 -0.23459,0.12347 -0.77788,0.33337 -1.01247,0.889 -0.2346,0.54327 -0.2593,1.16063 -0.0247,0.32103 -0.0247,0.4692 0.0123,0.13582 0.0247,0.39511 0.11113,1.29645 1.44463,1.29645 0.18521,0 0.30868,-0.037 v 1.95086 q -0.59267,0.43215 -1.62983,0.43215 -1.65453,0 -2.4571,-0.77787 -0.80256,-0.77788 -0.95073,-2.62996 z"
         style="font-style:normal;font-variant:normal;font-weight:800;font-stretch:normal;font-size:24.6944px;font-family:'Big Shoulders Stencil Text';-inkscape-font-specification:'Big Shoulders Stencil Text Ultra-Bold'"
         id="path308" />
      <path
         d="m 198.38511,121.28344 v -19.75552 h 3.27201 v 19.75552 z"
         style="font-style:normal;font-variant:normal;font-weight:800;font-stretch:normal;font-size:24.6944px;font-family:'Big Shoulders Stencil Text';-inkscape-font-specification:'Big Shoulders Stencil Text Ultra-Bold'"
         id="path310" />
      <path
         d="m 206.25027,121.28344 -2.83986,-14.81664 h 3.38313 l 0.96309,6.80331 0.55562,5.60563 h 3.21027 l -0.40746,2.4077 z m 2.88924,-3.66712 0.30868,-4.34621 0.75318,-6.80331 h 3.38313 l -1.85208,11.14952 z m -3.49426,8.8406 q -0.4198,0 -0.91369,-0.0494 -0.49389,-0.0494 -0.95073,-0.12347 v -2.4324 q 0.34572,0.0247 0.90134,0.037 0.56797,0.0247 0.95074,0.0247 0.85195,0 1.3088,-0.18521 0.45685,-0.17286 0.55562,-0.6791 l 0.0864,-0.50623 h 3.30905 l -0.0864,0.49389 q -0.2099,1.13594 -0.76552,1.88912 -0.54328,0.76552 -1.60514,1.14829 -1.04951,0.38276 -2.79047,0.38276 z"
         style="font-style:normal;font-variant:normal;font-weight:800;font-stretch:normal;font-size:24.6944px;font-family:'Big Shoulders Stencil Text';-inkscape-font-specification:'Big Shoulders Stencil Text Ultra-Bold'"
         id="path312" />
      <path
         d="m 214.69572,108.88685 v -2.4077 l 8.71712,-0.0123 v 2.40771 z m 0.60501,8.79121 4.00049,-7.58118 h 3.40783 l -4.09927,7.58118 z m -0.71614,3.60538 v -2.4077 h 8.74182 v 2.4077 z"
         style="font-style:normal;font-variant:normal;font-weight:800;font-stretch:normal;font-size:24.6944px;font-family:'Big Shoulders Stencil Text';-inkscape-font-specification:'Big Shoulders Stencil Text Ultra-Bold'"
         id="path314" />
      <path
         d="m 224.80804,117.41877 q -0.037,-0.6544 -0.0617,-1.61748 -0.0123,-0.96309 -0.0123,-2.00025 0.0123,-1.04951 0.0247,-1.9632 0.0123,-0.9137 0.0494,-1.45697 0.13582,-2.03729 1.08656,-3.00037 0.95073,-0.97543 2.95098,-1.1236 v 2.53118 q -0.69145,0.2099 -0.71614,1.0989 -0.037,1.5187 -0.0617,2.77812 -0.0123,1.24706 0,2.46944 0.0247,1.22237 0.0617,2.6423 0.0247,0.92604 0.71614,1.16064 v 2.55587 q -2.08668,-0.14817 -3.00037,-1.1236 -0.9137,-0.97543 -1.03717,-2.95098 z m 4.45734,-2.98802 v -2.25954 h 1.82739 q 0,-0.74083 0,-1.39523 0,-0.66675 -0.0247,-0.889 -0.037,-0.83961 -0.66675,-1.08656 v -2.54352 q 2.00025,0.14817 2.91394,1.0989 0.92604,0.93839 1.02482,2.90159 0.0123,0.28399 0.0123,1.00013 0.0123,0.70379 0,1.56809 0,0.86431 -0.037,1.60514 z m 1.13594,7.0626 v -2.54353 q 0.61736,-0.22225 0.66675,-1.19768 0.0247,-0.37041 0.0247,-0.8643 0.0123,-0.49389 -0.0247,-1.21003 h 3.24732 q 0.0247,0.20991 0.0247,0.77788 0.0123,0.55562 0,0.96308 -0.0988,2.01259 -1.02482,2.97568 -0.91369,0.96308 -2.91394,1.0989 z"
         style="font-style:normal;font-variant:normal;font-weight:800;font-stretch:normal;font-size:24.6944px;font-family:'Big Shoulders Stencil Text';-inkscape-font-specification:'Big Shoulders Stencil Text Ultra-Bold'"
         id="path316" />
      <path
         d="m 241.29154,109.08441 v -2.4324 q 0.50623,-0.27164 1.3088,-0.27164 0.29634,0 0.59267,0.0247 0.30868,0.0247 0.50623,0.0494 v 2.48178 h -1.06186 q -0.81491,0 -1.34584,0.14817 z m -4.91419,12.19903 V 106.4668 h 3.35844 v 14.81664 z"
         style="font-style:normal;font-variant:normal;font-weight:800;font-stretch:normal;font-size:24.6944px;font-family:'Big Shoulders Stencil Text';-inkscape-font-specification:'Big Shoulders Stencil Text Ultra-Bold'"
         id="path318" />
    </g>
    <g
       aria-label="Development Resource Manager"
       id="text94-3"
       style="font-style:normal;font-variant:normal;font-weight:normal;font-stretch:normal;font-size:9.3486px;line-height:1.25;font-family:System-ui;-inkscape-font-specification:System-ui;fill:#000000;fill-opacity:1;stroke:none;stroke-width:0.264583">
      <path
         d="m 14.730592,50.888153 v -0.617008 h 0.673099 v -4.066641 h -0.673099 v -0.617007 h 2.954158 q 0.701145,0 1.205969,0.215017 0.514173,0.215018 0.860071,0.588962 0.345899,0.364596 0.504825,0.841374 0.168275,0.46743 0.168275,0.962906 0,0.588962 -0.168275,1.084438 -0.168275,0.486127 -0.514173,0.850722 -0.33655,0.355247 -0.850723,0.560916 -0.514173,0.196321 -1.196621,0.196321 z m 1.664051,-0.617008 h 1.168575 q 0.486127,0 0.841374,-0.158926 0.355247,-0.158926 0.570264,-0.430035 0.224367,-0.280458 0.327202,-0.654402 0.112183,-0.383293 0.112183,-0.822677 0,-0.392641 -0.112183,-0.747888 -0.112184,-0.364596 -0.33655,-0.645054 -0.215018,-0.280458 -0.560916,-0.439384 -0.345898,-0.168275 -0.822677,-0.168275 h -1.187272 z"
         style="font-style:normal;font-variant:normal;font-weight:500;font-stretch:normal;font-size:9.3486px;font-family:Rokkitt;-inkscape-font-specification:'Rokkitt Medium';stroke-width:0.264583"
         id="path322" />
      <path
         d="m 23.163016,51.000336 q -0.59831,0 -1.075089,-0.243063 -0.46743,-0.243064 -0.747888,-0.682448 -0.271109,-0.439384 -0.271109,-1.028346 0,-0.598311 0.26176,-1.028346 0.261761,-0.439384 0.701146,-0.682448 0.448732,-0.243064 1.009648,-0.243064 0.570265,0 0.972255,0.243064 0.411338,0.233715 0.626356,0.663751 0.224366,0.430035 0.224366,1.009648 v 0.196321 h -3.141129 l 0.0093,-0.476779 h 2.281059 q 0,-0.317852 -0.121532,-0.551567 -0.121532,-0.233715 -0.345898,-0.345898 -0.224367,-0.121532 -0.514173,-0.121532 -0.317853,0 -0.570265,0.149578 -0.243063,0.149577 -0.383292,0.430035 -0.140229,0.280458 -0.140229,0.673099 0,0.430036 0.158926,0.73854 0.158926,0.299155 0.439384,0.46743 0.289807,0.158926 0.663751,0.158926 0.392641,0 0.72919,-0.149578 0.345899,-0.158926 0.598311,-0.392641 l 0.280458,0.53287 q -0.27111,0.289807 -0.682448,0.486128 -0.411338,0.19632 -0.962906,0.19632 z"
         style="font-style:normal;font-variant:normal;font-weight:500;font-stretch:normal;font-size:9.3486px;font-family:Rokkitt;-inkscape-font-specification:'Rokkitt Medium';stroke-width:0.264583"
         id="path324" />
      <path
         d="m 27.173557,50.888153 -1.411638,-3.113084 h -0.551568 v -0.579613 h 2.037995 v 0.579613 h -0.542219 l 0.944209,2.253013 0.93486,-2.253013 h -0.53287 v -0.579613 h 1.851023 v 0.579613 h -0.532871 l -1.420987,3.113084 z"
         style="font-style:normal;font-variant:normal;font-weight:500;font-stretch:normal;font-size:9.3486px;font-family:Rokkitt;-inkscape-font-specification:'Rokkitt Medium';stroke-width:0.264583"
         id="path326" />
      <path
         d="m 32.259182,51.000336 q -0.59831,0 -1.075089,-0.243063 -0.46743,-0.243064 -0.747888,-0.682448 -0.271109,-0.439384 -0.271109,-1.028346 0,-0.598311 0.261761,-1.028346 0.26176,-0.439384 0.701145,-0.682448 0.448732,-0.243064 1.009649,-0.243064 0.570264,0 0.972254,0.243064 0.411338,0.233715 0.626356,0.663751 0.224367,0.430035 0.224367,1.009648 v 0.196321 h -3.14113 l 0.0093,-0.476779 h 2.281059 q 0,-0.317852 -0.121532,-0.551567 -0.121532,-0.233715 -0.345898,-0.345898 -0.224366,-0.121532 -0.514173,-0.121532 -0.317853,0 -0.570265,0.149578 -0.243063,0.149577 -0.383292,0.430035 -0.140229,0.280458 -0.140229,0.673099 0,0.430036 0.158926,0.73854 0.158926,0.299155 0.439384,0.46743 0.289807,0.158926 0.663751,0.158926 0.392641,0 0.729191,-0.149578 0.345898,-0.158926 0.59831,-0.392641 l 0.280458,0.53287 q -0.271109,0.289807 -0.682448,0.486128 -0.411338,0.19632 -0.962906,0.19632 z"
         style="font-style:normal;font-variant:normal;font-weight:500;font-stretch:normal;font-size:9.3486px;font-family:Rokkitt;-inkscape-font-specification:'Rokkitt Medium';stroke-width:0.264583"
         id="path328" />
      <path
         d="M 34.474793,50.888153 V 50.30854 h 0.626356 V 46.073624 H 34.49349 v -0.579613 h 1.486427 v 4.814529 h 0.560916 v 0.579613 z"
         style="font-style:normal;font-variant:normal;font-weight:500;font-stretch:normal;font-size:9.3486px;font-family:Rokkitt;-inkscape-font-specification:'Rokkitt Medium';stroke-width:0.264583"
         id="path330" />
      <path
         d="m 38.943422,51.000336 q -0.59831,0 -1.056392,-0.243063 -0.448732,-0.252413 -0.701145,-0.691797 -0.252412,-0.439384 -0.252412,-1.028346 0,-0.588962 0.252412,-1.018997 0.252413,-0.439384 0.701145,-0.682448 0.458082,-0.243064 1.056392,-0.243064 0.607659,0 1.056392,0.243064 0.458081,0.243064 0.710494,0.682448 0.252412,0.430035 0.252412,1.009649 0,0.588961 -0.252412,1.037694 -0.252413,0.439384 -0.710494,0.691797 -0.448733,0.243063 -1.056392,0.243063 z m 0,-0.682448 q 0.355247,0 0.607659,-0.158926 0.261761,-0.158926 0.40199,-0.448733 0.149578,-0.289806 0.149578,-0.682447 0,-0.383293 -0.149578,-0.663751 -0.140229,-0.280458 -0.40199,-0.430036 -0.252412,-0.158926 -0.607659,-0.158926 -0.345898,0 -0.607659,0.158926 -0.252412,0.149578 -0.392641,0.439385 -0.140229,0.280458 -0.140229,0.66375 0,0.383293 0.140229,0.673099 0.140229,0.289807 0.392641,0.448733 0.261761,0.158926 0.607659,0.158926 z"
         style="font-style:normal;font-variant:normal;font-weight:500;font-stretch:normal;font-size:9.3486px;font-family:Rokkitt;-inkscape-font-specification:'Rokkitt Medium';stroke-width:0.264583"
         id="path332" />
      <path
         d="m 41.346002,52.374581 v -0.579614 h 0.617007 v -4.019898 h -0.59831 v -0.579613 h 1.411639 l 0.0187,0.420687 -0.252412,0.13088 q 0.289806,-0.299155 0.673099,-0.46743 0.383293,-0.177623 0.813328,-0.177623 0.504825,0 0.897466,0.224366 0.40199,0.224367 0.626356,0.645054 0.233715,0.420687 0.233715,1.028346 0,0.617007 -0.252412,1.06574 -0.243064,0.439384 -0.673099,0.682448 -0.420687,0.233715 -0.925512,0.233715 -0.289806,0 -0.542219,-0.07479 -0.243063,-0.07479 -0.430035,-0.186972 -0.186972,-0.121532 -0.280458,-0.271109 l 0.158926,-0.06544 -0.0093,1.411638 h 0.691797 v 0.579614 z m 2.365196,-2.047344 q 0.495476,0 0.832025,-0.327201 0.33655,-0.327201 0.33655,-0.953557 0,-0.607659 -0.317853,-0.93486 -0.317852,-0.33655 -0.813328,-0.33655 -0.158926,0 -0.373944,0.05609 -0.205669,0.05609 -0.420687,0.177623 -0.205669,0.121532 -0.345898,0.317853 l 0.224366,-0.430036 0.0093,2.243664 -0.215018,-0.299155 q 0.215018,0.233715 0.495476,0.364595 0.289807,0.121532 0.588962,0.121532 z"
         style="font-style:normal;font-variant:normal;font-weight:500;font-stretch:normal;font-size:9.3486px;font-family:Rokkitt;-inkscape-font-specification:'Rokkitt Medium';stroke-width:0.264583"
         id="path334" />
      <path
         d="M 46.207258,50.888153 V 50.30854 h 0.654402 v -2.533471 h -0.645054 v -0.579613 h 1.486428 l 0.0093,0.458081 -0.271109,0.09349 q 0.383292,-0.289806 0.775934,-0.46743 0.40199,-0.177623 0.794631,-0.177623 0.588962,0 0.906814,0.364595 0.317852,0.355247 0.317852,0.897466 v 1.944509 h 0.626357 v 0.579613 H 48.806169 V 50.30854 h 0.560916 v -1.80428 q 0,-0.355247 -0.177624,-0.551567 -0.168275,-0.20567 -0.46743,-0.20567 -0.280458,0 -0.617008,0.140229 -0.327201,0.130881 -0.645053,0.355247 l 0.271109,-0.345898 v 2.411939 h 0.598311 v 0.579613 z m 5.160427,0 V 50.30854 h 0.551567 v -1.80428 q 0,-0.355247 -0.177623,-0.551567 -0.168275,-0.20567 -0.46743,-0.20567 -0.289807,0 -0.59831,0.130881 -0.299156,0.121532 -0.570265,0.317852 l -0.140229,-0.439384 q 0.383293,-0.289807 0.766585,-0.46743 0.392641,-0.186972 0.841374,-0.186972 0.523522,0 0.86942,0.327201 0.355247,0.327201 0.355247,0.916163 v 1.963206 h 0.617008 v 0.579613 z"
         style="font-style:normal;font-variant:normal;font-weight:500;font-stretch:normal;font-size:9.3486px;font-family:Rokkitt;-inkscape-font-specification:'Rokkitt Medium';stroke-width:0.264583"
         id="path336" />
      <path
         d="m 55.761511,51.000336 q -0.59831,0 -1.075089,-0.243063 -0.46743,-0.243064 -0.747888,-0.682448 -0.271109,-0.439384 -0.271109,-1.028346 0,-0.598311 0.261761,-1.028346 0.26176,-0.439384 0.701145,-0.682448 0.448732,-0.243064 1.009648,-0.243064 0.570265,0 0.972255,0.243064 0.411338,0.233715 0.626356,0.663751 0.224366,0.430035 0.224366,1.009648 v 0.196321 h -3.141129 l 0.0093,-0.476779 h 2.281059 q 0,-0.317852 -0.121532,-0.551567 -0.121532,-0.233715 -0.345898,-0.345898 -0.224367,-0.121532 -0.514173,-0.121532 -0.317853,0 -0.570265,0.149578 -0.243063,0.149577 -0.383292,0.430035 -0.140229,0.280458 -0.140229,0.673099 0,0.430036 0.158926,0.73854 0.158926,0.299155 0.439384,0.46743 0.289807,0.158926 0.663751,0.158926 0.392641,0 0.72919,-0.149578 0.345899,-0.158926 0.598311,-0.392641 l 0.280458,0.53287 q -0.27111,0.289807 -0.682448,0.486128 -0.411338,0.19632 -0.962906,0.19632 z"
         style="font-style:normal;font-variant:normal;font-weight:500;font-stretch:normal;font-size:9.3486px;font-family:Rokkitt;-inkscape-font-specification:'Rokkitt Medium';stroke-width:0.264583"
         id="path338" />
      <path
         d="M 57.939725,50.888153 V 50.30854 h 0.654402 v -2.533471 h -0.654402 v -0.579613 h 1.495776 l 0.0093,0.495476 -0.280458,0.05609 q 0.392641,-0.289806 0.785282,-0.46743 0.392642,-0.177623 0.813329,-0.177623 0.53287,0 0.878768,0.327201 0.345898,0.327201 0.345898,0.916163 v 1.963206 h 0.626356 v 0.579613 H 60.566682 V 50.30854 h 0.551567 v -1.80428 q 0,-0.355247 -0.177623,-0.551567 -0.168275,-0.20567 -0.476779,-0.20567 -0.299155,0 -0.617007,0.140229 -0.308504,0.130881 -0.654402,0.373944 l 0.271109,-0.373944 v 2.421288 h 0.598311 v 0.579613 z"
         style="font-style:normal;font-variant:normal;font-weight:500;font-stretch:normal;font-size:9.3486px;font-family:Rokkitt;-inkscape-font-specification:'Rokkitt Medium';stroke-width:0.264583"
         id="path340" />
      <path
         d="m 64.502427,50.888153 q -0.542219,0 -0.822677,-0.261761 -0.280458,-0.271109 -0.280458,-0.832025 v -2.019298 h -0.570264 v -0.579613 h 0.570264 v -1.243364 l 0.878769,-0.261761 v 1.505125 h 0.93486 v 0.579613 h -0.93486 v 1.925812 q 0,0.327201 0.102834,0.46743 0.112184,0.13088 0.373944,0.13088 h 0.523522 v 0.588962 z"
         style="font-style:normal;font-variant:normal;font-weight:500;font-stretch:normal;font-size:9.3486px;font-family:Rokkitt;-inkscape-font-specification:'Rokkitt Medium';stroke-width:0.264583"
         id="path342" />
      <path
         d="m 68.79341,50.888153 v -0.617008 h 0.682448 V 46.204504 H 68.79341 v -0.617007 h 2.898066 q 0.579613,0 1.009649,0.158926 0.430035,0.149577 0.66375,0.46743 0.243064,0.317852 0.243064,0.813328 0,0.364596 -0.140229,0.654402 -0.13088,0.280458 -0.420687,0.476779 -0.280458,0.186972 -0.729191,0.271109 l 1.121832,1.832326 h 0.710494 v 0.626356 H 72.738519 L 71.373623,48.532306 H 70.79401 v -0.635705 h 0.785283 q 0.401989,0 0.626356,-0.121532 0.224366,-0.13088 0.317852,-0.327201 0.09349,-0.205669 0.09349,-0.430035 0,-0.224367 -0.102834,-0.40199 -0.102835,-0.186972 -0.308504,-0.299156 -0.205669,-0.112183 -0.523522,-0.112183 h -1.224666 v 4.066641 h 0.673099 v 0.617008 z"
         style="font-style:normal;font-variant:normal;font-weight:500;font-stretch:normal;font-size:9.3486px;font-family:Rokkitt;-inkscape-font-specification:'Rokkitt Medium';stroke-width:0.264583"
         id="path344" />
      <path
         d="m 76.721007,51.000336 q -0.598311,0 -1.075089,-0.243063 -0.46743,-0.243064 -0.747888,-0.682448 -0.27111,-0.439384 -0.27111,-1.028346 0,-0.598311 0.261761,-1.028346 0.261761,-0.439384 0.701145,-0.682448 0.448733,-0.243064 1.009649,-0.243064 0.570265,0 0.972254,0.243064 0.411339,0.233715 0.626357,0.663751 0.224366,0.430035 0.224366,1.009648 v 0.196321 h -3.14113 l 0.0093,-0.476779 h 2.281058 q 0,-0.317852 -0.121531,-0.551567 -0.121532,-0.233715 -0.345899,-0.345898 -0.224366,-0.121532 -0.514173,-0.121532 -0.317852,0 -0.570264,0.149578 -0.243064,0.149577 -0.383293,0.430035 -0.140229,0.280458 -0.140229,0.673099 0,0.430036 0.158926,0.73854 0.158926,0.299155 0.439384,0.46743 0.289807,0.158926 0.663751,0.158926 0.392641,0 0.729191,-0.149578 0.345898,-0.158926 0.59831,-0.392641 l 0.280458,0.53287 q -0.271109,0.289807 -0.682447,0.486128 -0.411339,0.19632 -0.962906,0.19632 z"
         style="font-style:normal;font-variant:normal;font-weight:500;font-stretch:normal;font-size:9.3486px;font-family:Rokkitt;-inkscape-font-specification:'Rokkitt Medium';stroke-width:0.264583"
         id="path346" />
      <path
         d="m 81.049399,50.981639 q -0.299155,0 -0.579613,-0.07479 -0.27111,-0.07479 -0.476779,-0.215018 -0.196321,-0.140229 -0.299155,-0.317852 l 0.168275,0.05609 V 50.88815 H 79.23577 v -1.262061 h 0.570265 l 0.05609,0.579613 -0.158927,-0.411338 q 0.130881,0.308504 0.46743,0.476778 0.33655,0.168275 0.710494,0.168275 0.317853,0 0.523522,-0.121532 0.215018,-0.13088 0.215018,-0.355246 0,-0.27111 -0.186972,-0.373944 -0.186972,-0.112184 -0.598311,-0.20567 l -0.46743,-0.09349 q -0.551567,-0.140229 -0.850723,-0.373944 -0.289806,-0.233715 -0.289806,-0.747888 0,-0.504824 0.383292,-0.785282 0.392642,-0.280458 0.981603,-0.280458 0.252413,0 0.504825,0.06544 0.261761,0.06544 0.458081,0.196321 0.20567,0.121532 0.280458,0.289806 l -0.186972,-0.02804 v -0.448733 h 0.645054 v 1.243364 H 81.71315 l -0.102835,-0.80398 0.168275,0.542219 q -0.04674,-0.149578 -0.215018,-0.261761 -0.158926,-0.112183 -0.373944,-0.177623 -0.215018,-0.06544 -0.430036,-0.06544 -0.261761,0 -0.476778,0.112184 -0.20567,0.112183 -0.20567,0.345898 0,0.19632 0.149578,0.299155 0.149578,0.102835 0.486127,0.177623 l 0.448733,0.102835 q 0.383293,0.08414 0.663751,0.215018 0.289806,0.121532 0.448733,0.355247 0.168274,0.224366 0.168274,0.626356 0,0.364595 -0.19632,0.617007 -0.196321,0.243064 -0.514173,0.364596 -0.317853,0.112183 -0.682448,0.112183 z"
         style="font-style:normal;font-variant:normal;font-weight:500;font-stretch:normal;font-size:9.3486px;font-family:Rokkitt;-inkscape-font-specification:'Rokkitt Medium';stroke-width:0.264583"
         id="path348" />
      <path
         d="m 85.031904,51.000336 q -0.59831,0 -1.056392,-0.243063 -0.448733,-0.252413 -0.701145,-0.691797 -0.252412,-0.439384 -0.252412,-1.028346 0,-0.588962 0.252412,-1.018997 0.252412,-0.439384 0.701145,-0.682448 0.458082,-0.243064 1.056392,-0.243064 0.607659,0 1.056392,0.243064 0.458081,0.243064 0.710494,0.682448 0.252412,0.430035 0.252412,1.009649 0,0.588961 -0.252412,1.037694 -0.252413,0.439384 -0.710494,0.691797 -0.448733,0.243063 -1.056392,0.243063 z m 0,-0.682448 q 0.355247,0 0.607659,-0.158926 0.261761,-0.158926 0.40199,-0.448733 0.149578,-0.289806 0.149578,-0.682447 0,-0.383293 -0.149578,-0.663751 -0.140229,-0.280458 -0.40199,-0.430036 -0.252412,-0.158926 -0.607659,-0.158926 -0.345898,0 -0.607659,0.158926 -0.252412,0.149578 -0.392641,0.439385 -0.140229,0.280458 -0.140229,0.66375 0,0.383293 0.140229,0.673099 0.140229,0.289807 0.392641,0.448733 0.261761,0.158926 0.607659,0.158926 z"
         style="font-style:normal;font-variant:normal;font-weight:500;font-stretch:normal;font-size:9.3486px;font-family:Rokkitt;-inkscape-font-specification:'Rokkitt Medium';stroke-width:0.264583"
         id="path350" />
      <path
         d="m 89.192021,50.981639 q -0.430036,0 -0.710494,-0.168275 -0.271109,-0.177623 -0.40199,-0.458081 -0.13088,-0.289807 -0.13088,-0.626356 v -1.953858 h -0.570265 v -0.579613 h 1.458382 v 2.421287 q 0,0.327201 0.149577,0.523522 0.158927,0.186972 0.486128,0.186972 0.364595,0 0.673099,-0.168275 0.317852,-0.177623 0.59831,-0.486127 l -0.233715,0.430036 v -2.327802 h -0.59831 v -0.579613 h 1.46773 v 3.113084 h 0.635705 v 0.579613 h -1.458382 l -0.03739,-0.579613 0.271109,-0.06544 q -0.364595,0.345898 -0.766585,0.542218 -0.392641,0.196321 -0.832025,0.196321 z"
         style="font-style:normal;font-variant:normal;font-weight:500;font-stretch:normal;font-size:9.3486px;font-family:Rokkitt;-inkscape-font-specification:'Rokkitt Medium';stroke-width:0.264583"
         id="path352" />
      <path
         d="M 92.407932,50.888153 V 50.30854 h 0.645053 v -2.533471 h -0.645053 v -0.579613 h 1.523821 v 1.112483 l -0.140229,-0.0093 q 0.112184,-0.448733 0.280458,-0.691797 0.177624,-0.252412 0.392642,-0.355246 0.215017,-0.112184 0.430035,-0.112184 0.196321,0 0.373944,0.04674 0.186972,0.04674 0.364596,0.130881 l -0.196321,0.766585 q -0.158926,-0.102835 -0.327201,-0.149578 -0.168275,-0.05609 -0.355247,-0.05609 -0.317852,0 -0.570264,0.252412 -0.243064,0.252412 -0.243064,0.747888 l -0.0093,1.430336 h 0.617008 v 0.579613 z"
         style="font-style:normal;font-variant:normal;font-weight:500;font-stretch:normal;font-size:9.3486px;font-family:Rokkitt;-inkscape-font-specification:'Rokkitt Medium';stroke-width:0.264583"
         id="path354" />
      <path
         d="m 98.045134,50.981639 q -0.588962,0 -1.047044,-0.252412 -0.458081,-0.252412 -0.719842,-0.691797 -0.261761,-0.448732 -0.261761,-1.028346 0,-0.570264 0.243064,-1.0003 0.252412,-0.430035 0.682448,-0.673099 0.430035,-0.243064 0.981603,-0.243064 0.53287,0 0.878768,0.233715 0.345898,0.233715 0.448733,0.588962 h -0.168275 v -0.738539 h 0.673099 v 1.383593 h -0.607659 q -0.07479,-0.383293 -0.345898,-0.598311 -0.261761,-0.224366 -0.691796,-0.224366 -0.355247,0 -0.635705,0.158926 -0.271109,0.149578 -0.430036,0.439384 -0.149577,0.280458 -0.149577,0.645054 0,0.392641 0.158926,0.691796 0.158926,0.299155 0.439384,0.46743 0.289807,0.168275 0.663751,0.168275 0.458081,0 0.757236,-0.168275 0.299156,-0.177623 0.542219,-0.439384 l 0.317853,0.53287 q -0.289807,0.33655 -0.719843,0.542219 -0.430035,0.205669 -1.009648,0.205669 z"
         style="font-style:normal;font-variant:normal;font-weight:500;font-stretch:normal;font-size:9.3486px;font-family:Rokkitt;-inkscape-font-specification:'Rokkitt Medium';stroke-width:0.264583"
         id="path356" />
      <path
         d="m 102.45767,51.000336 q -0.59831,0 -1.07509,-0.243063 -0.46743,-0.243064 -0.74789,-0.682448 -0.27111,-0.439384 -0.27111,-1.028346 0,-0.598311 0.26176,-1.028346 0.26177,-0.439384 0.70115,-0.682448 0.44873,-0.243064 1.00965,-0.243064 0.57026,0 0.97225,0.243064 0.41134,0.233715 0.62636,0.663751 0.22437,0.430035 0.22437,1.009648 v 0.196321 h -3.14113 l 0.009,-0.476779 h 2.28106 q 0,-0.317852 -0.12153,-0.551567 -0.12153,-0.233715 -0.3459,-0.345898 -0.22436,-0.121532 -0.51417,-0.121532 -0.31785,0 -0.57026,0.149578 -0.24307,0.149577 -0.3833,0.430035 -0.14023,0.280458 -0.14023,0.673099 0,0.430036 0.15893,0.73854 0.15893,0.299155 0.43938,0.46743 0.28981,0.158926 0.66375,0.158926 0.39265,0 0.7292,-0.149578 0.34589,-0.158926 0.59831,-0.392641 l 0.28045,0.53287 q -0.27111,0.289807 -0.68244,0.486128 -0.41134,0.19632 -0.96291,0.19632 z"
         style="font-style:normal;font-variant:normal;font-weight:500;font-stretch:normal;font-size:9.3486px;font-family:Rokkitt;-inkscape-font-specification:'Rokkitt Medium';stroke-width:0.264583"
         id="path358" />
      <path
         d="m 107.72091,50.888153 v -0.617008 h 0.66375 v -4.066641 h -0.66375 v -0.617007 h 2.0193 l 1.57991,3.477679 1.50513,-3.477679 h 2.00995 v 0.617007 h -0.65441 v 4.066641 h 0.65441 v 0.617008 h -2.23432 v -0.617008 h 0.6357 v -3.842274 l -1.85102,4.20687 h -0.36459 l -1.87907,-4.20687 v 3.842274 h 0.6357 v 0.617008 z"
         style="font-style:normal;font-variant:normal;font-weight:500;font-stretch:normal;font-size:9.3486px;font-family:Rokkitt;-inkscape-font-specification:'Rokkitt Medium';stroke-width:0.264583"
         id="path360" />
      <path
         d="m 116.82644,50.990988 q -0.57027,0 -0.91616,-0.308504 -0.33655,-0.317853 -0.33655,-0.785283 0,-0.420687 0.19632,-0.673099 0.20567,-0.261761 0.54222,-0.373944 0.34589,-0.112183 0.73854,-0.112183 0.31785,0 0.6357,0.05609 0.31785,0.05609 0.58896,0.140229 l -0.26176,0.04674 v -0.448733 q 0,-0.411339 -0.22437,-0.607659 -0.21501,-0.205669 -0.59831,-0.205669 -0.26176,0 -0.59831,0.09349 -0.33655,0.08414 -0.6544,0.243063 l -0.23371,-0.542219 q 0.36459,-0.205669 0.78528,-0.308503 0.43003,-0.102835 0.79463,-0.102835 0.50482,0 0.86007,0.168275 0.3646,0.158926 0.55157,0.46743 0.18697,0.308504 0.18697,0.729191 v 1.841674 h 0.54222 v 0.579613 h -1.29011 l -0.0935,-0.542219 h 0.28045 q -0.34589,0.327201 -0.70114,0.486127 -0.3459,0.158927 -0.79463,0.158927 z m 0.20567,-0.542219 q 0.3085,0 0.60766,-0.130881 0.3085,-0.140229 0.62635,-0.420687 l -0.25241,0.33655 v -1.037695 l 0.20567,0.177624 q -0.20567,-0.07479 -0.48613,-0.121532 -0.27111,-0.04674 -0.56091,-0.04674 -0.29916,0 -0.54222,0.140229 -0.24307,0.13088 -0.24307,0.495476 0,0.261761 0.16828,0.439384 0.16827,0.168275 0.47678,0.168275 z"
         style="font-style:normal;font-variant:normal;font-weight:500;font-stretch:normal;font-size:9.3486px;font-family:Rokkitt;-inkscape-font-specification:'Rokkitt Medium';stroke-width:0.264583"
         id="path362" />
      <path
         d="M 119.7432,50.888153 V 50.30854 h 0.6544 v -2.533471 h -0.6544 v -0.579613 h 1.49578 l 0.009,0.495476 -0.28045,0.05609 q 0.39264,-0.289806 0.78528,-0.46743 0.39264,-0.177623 0.81333,-0.177623 0.53287,0 0.87877,0.327201 0.34589,0.327201 0.34589,0.916163 v 1.963206 h 0.62636 v 0.579613 h -2.04734 V 50.30854 h 0.55156 v -1.80428 q 0,-0.355247 -0.17762,-0.551567 -0.16827,-0.20567 -0.47678,-0.20567 -0.29915,0 -0.61701,0.140229 -0.3085,0.130881 -0.6544,0.373944 l 0.27111,-0.373944 v 2.421288 h 0.59831 v 0.579613 z"
         style="font-style:normal;font-variant:normal;font-weight:500;font-stretch:normal;font-size:9.3486px;font-family:Rokkitt;-inkscape-font-specification:'Rokkitt Medium';stroke-width:0.264583"
         id="path364" />
      <path
         d="m 126.05349,50.990988 q -0.57027,0 -0.91616,-0.308504 -0.33655,-0.317853 -0.33655,-0.785283 0,-0.420687 0.19632,-0.673099 0.20567,-0.261761 0.54222,-0.373944 0.34589,-0.112183 0.73854,-0.112183 0.31785,0 0.6357,0.05609 0.31785,0.05609 0.58896,0.140229 l -0.26176,0.04674 v -0.448733 q 0,-0.411339 -0.22436,-0.607659 -0.21502,-0.205669 -0.59832,-0.205669 -0.26176,0 -0.59831,0.09349 -0.33655,0.08414 -0.6544,0.243063 l -0.23371,-0.542219 q 0.36459,-0.205669 0.78528,-0.308503 0.43004,-0.102835 0.79463,-0.102835 0.50483,0 0.86007,0.168275 0.3646,0.158926 0.55157,0.46743 0.18697,0.308504 0.18697,0.729191 v 1.841674 h 0.54222 v 0.579613 h -1.29011 l -0.0935,-0.542219 h 0.28046 q -0.3459,0.327201 -0.70115,0.486127 -0.3459,0.158927 -0.79463,0.158927 z m 0.20567,-0.542219 q 0.3085,0 0.60766,-0.130881 0.3085,-0.140229 0.62635,-0.420687 l -0.25241,0.33655 v -1.037695 l 0.20567,0.177624 q -0.20567,-0.07479 -0.48613,-0.121532 -0.27111,-0.04674 -0.56091,-0.04674 -0.29916,0 -0.54222,0.140229 -0.24306,0.13088 -0.24306,0.495476 0,0.261761 0.16827,0.439384 0.16827,0.168275 0.47678,0.168275 z"
         style="font-style:normal;font-variant:normal;font-weight:500;font-stretch:normal;font-size:9.3486px;font-family:Rokkitt;-inkscape-font-specification:'Rokkitt Medium';stroke-width:0.264583"
         id="path366" />
      <path
         d="m 131.02693,52.664387 q -0.36459,0 -0.73853,-0.06544 -0.3646,-0.06544 -0.71985,-0.177623 l 0.15893,-0.626357 q 0.33655,0.09349 0.6357,0.149578 0.30851,0.06544 0.57962,0.06544 0.54222,0 0.84137,-0.252412 0.29916,-0.252412 0.29916,-0.775934 v -0.588962 l 0.25241,-0.07479 q -0.28981,0.308504 -0.66375,0.458082 -0.3646,0.149577 -0.76659,0.149577 -0.52352,0 -0.95355,-0.224366 -0.42069,-0.224366 -0.66375,-0.654402 -0.24307,-0.430036 -0.24307,-1.028346 0,-0.607659 0.23372,-1.037695 0.24306,-0.430035 0.66375,-0.645053 0.42068,-0.224366 0.94421,-0.224366 0.39264,0 0.78528,0.168274 0.39264,0.168275 0.60766,0.439385 l -0.18697,0.0187 v -0.542219 h 1.43968 v 0.579613 h -0.57026 v 3.122433 q 0,0.617007 -0.25242,1.009649 -0.24306,0.392641 -0.68244,0.570264 -0.43004,0.186972 -1.00031,0.186972 z m 0.0374,-4.917364 q -0.31785,0 -0.57027,0.149578 -0.25241,0.149578 -0.39264,0.439384 -0.14023,0.289807 -0.14023,0.719842 0,0.392642 0.14958,0.6731 0.15893,0.271109 0.42069,0.411338 0.26176,0.140229 0.59831,0.140229 0.29915,0 0.61701,-0.13088 0.3272,-0.130881 0.57026,-0.373944 l -0.23371,0.411338 -0.009,-2.290407 0.23371,0.364595 q -0.26176,-0.233715 -0.59831,-0.373944 -0.3272,-0.140229 -0.64505,-0.140229 z"
         style="font-style:normal;font-variant:normal;font-weight:500;font-stretch:normal;font-size:9.3486px;font-family:Rokkitt;-inkscape-font-specification:'Rokkitt Medium';stroke-width:0.264583"
         id="path368" />
      <path
         d="m 135.9443,51.000336 q -0.59831,0 -1.07509,-0.243063 -0.46743,-0.243064 -0.74789,-0.682448 -0.27111,-0.439384 -0.27111,-1.028346 0,-0.598311 0.26176,-1.028346 0.26176,-0.439384 0.70115,-0.682448 0.44873,-0.243064 1.00964,-0.243064 0.57027,0 0.97226,0.243064 0.41134,0.233715 0.62636,0.663751 0.22436,0.430035 0.22436,1.009648 v 0.196321 h -3.14113 l 0.009,-0.476779 h 2.28106 q 0,-0.317852 -0.12153,-0.551567 -0.12153,-0.233715 -0.3459,-0.345898 -0.22437,-0.121532 -0.51417,-0.121532 -0.31786,0 -0.57027,0.149578 -0.24306,0.149577 -0.38329,0.430035 -0.14023,0.280458 -0.14023,0.673099 0,0.430036 0.15893,0.73854 0.15892,0.299155 0.43938,0.46743 0.28981,0.158926 0.66375,0.158926 0.39264,0 0.72919,-0.149578 0.3459,-0.158926 0.59831,-0.392641 l 0.28046,0.53287 q -0.27111,0.289807 -0.68245,0.486128 -0.41134,0.19632 -0.9629,0.19632 z"
         style="font-style:normal;font-variant:normal;font-weight:500;font-stretch:normal;font-size:9.3486px;font-family:Rokkitt;-inkscape-font-specification:'Rokkitt Medium';stroke-width:0.264583"
         id="path370" />
      <path
         d="M 138.22534,50.888153 V 50.30854 h 0.64506 v -2.533471 h -0.64506 v -0.579613 h 1.52383 v 1.112483 l -0.14023,-0.0093 q 0.11218,-0.448733 0.28046,-0.691797 0.17762,-0.252412 0.39264,-0.355246 0.21501,-0.112184 0.43003,-0.112184 0.19632,0 0.37395,0.04674 0.18697,0.04674 0.36459,0.130881 l -0.19632,0.766585 q -0.15892,-0.102835 -0.3272,-0.149578 -0.16827,-0.05609 -0.35525,-0.05609 -0.31785,0 -0.57026,0.252412 -0.24306,0.252412 -0.24306,0.747888 l -0.009,1.430336 h 0.617 v 0.579613 z"
         style="font-style:normal;font-variant:normal;font-weight:500;font-stretch:normal;font-size:9.3486px;font-family:Rokkitt;-inkscape-font-specification:'Rokkitt Medium';stroke-width:0.264583"
         id="path372" />
    </g>
  </g>
</svg>
