<?xml version="1.0" encoding="UTF-8" standalone="no"?>
<svg
   xmlns:dc="http://purl.org/dc/elements/1.1/"
   xmlns:cc="http://creativecommons.org/ns#"
   xmlns:rdf="http://www.w3.org/1999/02/22-rdf-syntax-ns#"
   xmlns:svg="http://www.w3.org/2000/svg"
   xmlns="http://www.w3.org/2000/svg"
   xmlns:sodipodi="http://sodipodi.sourceforge.net/DTD/sodipodi-0.dtd"
   xmlns:inkscape="http://www.inkscape.org/namespaces/inkscape"
   width="297mm"
   height="70mm"
   viewBox="0 0 297 70"
   version="1.1"
   id="svg8"
   inkscape:version="1.0.1 (3bc2e813f5, 2020-09-07, custom)"
   sodipodi:docname="SE_LOGO.svg">
  <defs
     id="defs2">
    <rect
       x="76.729167"
       y="97.895833"
       width="259.29167"
       height="52.916667"
       id="rect153" />
    <mask
       maskUnits="userSpaceOnUse"
       id="mask346">
      <rect
         style="fill:#00ffff;stroke-width:0.228865"
         id="rect348"
         width="29.999846"
         height="16.37294"
         x="-71.065811"
         y="33.737495"
         transform="matrix(0.99999647,0.00265675,-0.00470155,0.99998895,0,0)" />
    </mask>
    <mask
       maskUnits="userSpaceOnUse"
       id="mask346-8">
      <rect
         style="fill:#00ffff;stroke-width:0.228865"
         id="rect348-7"
         width="29.999846"
         height="16.37294"
         x="-71.065811"
         y="33.737495"
         transform="matrix(0.99999647,0.00265675,-0.00470155,0.99998895,0,0)" />
    </mask>
    <mask
       maskUnits="userSpaceOnUse"
       id="mask346-0">
      <rect
         style="fill:#00ffff;stroke-width:0.228865"
         id="rect348-2"
         width="29.999846"
         height="16.37294"
         x="-71.065811"
         y="33.737495"
         transform="matrix(0.99999647,0.00265675,-0.00470155,0.99998895,0,0)" />
    </mask>
  </defs>
  <sodipodi:namedview
     id="base"
     pagecolor="#ffffff"
     bordercolor="#666666"
     borderopacity="1.0"
     inkscape:pageopacity="0.0"
     inkscape:pageshadow="2"
     inkscape:zoom="0.7071068"
     inkscape:cx="990.72056"
     inkscape:cy="47.340425"
     inkscape:document-units="mm"
     inkscape:current-layer="layer3"
     inkscape:document-rotation="0"
     showgrid="false"
     height="110mm"
     inkscape:window-width="1920"
     inkscape:window-height="1017"
     inkscape:window-x="0"
     inkscape:window-y="27"
     inkscape:window-maximized="1"
     showguides="false">
    <inkscape:grid
       type="xygrid"
       id="grid12" />
  </sodipodi:namedview>
  <metadata
     id="metadata5">
    <rdf:RDF>
      <cc:Work
         rdf:about="">
        <dc:format>image/svg+xml</dc:format>
        <dc:type
           rdf:resource="http://purl.org/dc/dcmitype/StillImage" />
        <dc:title></dc:title>
      </cc:Work>
    </rdf:RDF>
  </metadata>
  <g
     inkscape:groupmode="layer"
     id="layer3"
     inkscape:label="BASE">
    <path
       id="rect131"
       style="fill:#ffffff;fill-opacity:1;stroke-width:0.209552"
       d="M 0,0 H 297 V 70 H 0 Z" />
    <g
       aria-label="SmartEnergy"
       transform="translate(0.48938781,-84.587871)"
       id="text151"
       style="font-style:normal;font-weight:normal;font-size:24.6944px;line-height:1.25;font-family:sans-serif;white-space:pre;shape-inside:url(#rect153);fill:#000000;fill-opacity:1;stroke:none">
      <path
         d="m 95.164912,115.27691 q 0,0.92845 -0.241157,1.67604 -0.229098,0.73552 -0.614948,1.30224 -0.38585,0.56672 -0.904336,0.96462 -0.518486,0.39791 -1.073146,0.65113 -0.554659,0.25321 -1.133434,0.37379 -0.566717,0.12058 -1.073145,0.12058 H 78.030759 v -3.13503 h 12.093987 q 0.904336,0 1.398706,-0.53055 0.506428,-0.53054 0.506428,-1.42282 0,-0.43408 -0.132636,-0.79582 -0.132636,-0.36173 -0.38585,-0.627 -0.241156,-0.26527 -0.60289,-0.40997 -0.349677,-0.14469 -0.783758,-0.14469 h -7.210572 q -0.759643,0 -1.639863,-0.26527 -0.88022,-0.27733 -1.639862,-0.88022 -0.747585,-0.60289 -1.254013,-1.57958 -0.49437,-0.97668 -0.49437,-2.38744 0,-1.41077 0.49437,-2.37539 0.506428,-0.97669 1.254013,-1.57958 0.759642,-0.61495 1.639862,-0.88022 0.88022,-0.27733 1.639863,-0.27733 h 10.671164 v 3.13503 H 82.914174 q -0.892279,0 -1.398707,0.54261 -0.49437,0.5426 -0.49437,1.43488 0,0.90433 0.49437,1.43488 0.506428,0.51848 1.398707,0.51848 h 7.210572 0.02411 q 0.506429,0.0121 1.073146,0.1447 0.566717,0.12057 1.121376,0.38585 0.566718,0.26527 1.073146,0.67523 0.506428,0.39791 0.892278,0.96463 0.397908,0.56672 0.627006,1.30224 0.229099,0.73553 0.229099,1.66398 z"
         style="font-style:normal;font-variant:normal;font-weight:normal;font-stretch:normal;font-size:24.6944px;font-family:audiowide;-inkscape-font-specification:audiowide"
         id="path36" />
      <path
         d="m 109.05551,120.36531 h -3.13503 v -8.64546 q 0,-0.61494 -0.32556,-0.92845 -0.32556,-0.32556 -0.96463,-0.32556 h -4.07554 v 9.89947 h -3.135027 v -11.47904 q 0,-0.32556 0.120578,-0.60289 0.120578,-0.28939 0.337618,-0.49437 0.217041,-0.21704 0.506429,-0.33762 0.289387,-0.12058 0.614948,-0.12058 h 5.655114 q 0.65112,0 1.39871,0.2291 0.74758,0.2291 1.42282,0.73553 v -0.96463 h 4.24435 q 0.44614,0 0.94051,0.10852 0.49437,0.0965 0.97668,0.3135 0.49437,0.21705 0.94051,0.56672 0.44614,0.33762 0.78376,0.83199 0.33762,0.48231 0.5426,1.12138 0.20498,0.63906 0.20498,1.44693 v 8.64546 h -3.13503 v -8.64546 q 0,-0.61494 -0.3135,-0.92845 -0.30145,-0.32556 -0.94051,-0.32556 h -2.82153 q 0.15675,0.57878 0.15675,1.25401 z"
         style="font-style:normal;font-variant:normal;font-weight:normal;font-stretch:normal;font-size:24.6944px;font-family:audiowide;-inkscape-font-specification:audiowide"
         id="path38" />
      <path
         d="m 132.44767,116.04861 q 0,0.65112 -0.2291,1.41076 -0.2291,0.74759 -0.74758,1.39871 -0.50643,0.63906 -1.33842,1.07315 -0.81993,0.43408 -2.0016,0.43408 h -5.65511 q -0.65112,0 -1.41077,-0.2291 -0.74758,-0.2291 -1.3987,-0.73553 -0.63907,-0.51848 -1.07315,-1.33842 -0.43408,-0.83198 -0.43408,-2.01365 0,-0.65112 0.2291,-1.41076 0.2291,-0.75965 0.73552,-1.39871 0.51849,-0.65112 1.33842,-1.0852 0.83199,-0.43409 2.01366,-0.43409 h 5.65511 v 2.99034 h -5.65511 q -0.63907,0 -0.98874,0.39791 -0.34968,0.38585 -0.34968,0.96463 0,0.61494 0.39791,0.96462 0.40996,0.33762 0.96462,0.33762 h 5.631 q 0.63907,0 0.98874,-0.38585 0.34968,-0.38585 0.34968,-0.96463 v -4.37698 q 0,-0.61495 -0.38585,-0.97668 -0.37379,-0.36174 -0.95257,-0.36174 h -6.88501 v -2.97828 h 6.88501 q 0.65112,0 1.39871,0.2291 0.75964,0.2291 1.3987,0.74758 0.65113,0.50643 1.08521,1.33842 0.43408,0.81993 0.43408,2.0016 z"
         style="font-style:normal;font-variant:normal;font-weight:normal;font-stretch:normal;font-size:24.6944px;font-family:audiowide;-inkscape-font-specification:audiowide"
         id="path40" />
      <path
         d="m 146.53119,110.46584 h -7.05382 q -0.63906,0 -0.96462,0.32556 -0.32556,0.31351 -0.32556,0.92845 v 8.64546 h -3.13503 v -8.64546 q 0,-0.80787 0.20498,-1.44693 0.20498,-0.63907 0.5426,-1.12138 0.34968,-0.49437 0.79582,-0.83199 0.44614,-0.34967 0.92845,-0.56672 0.49437,-0.21704 0.98874,-0.3135 0.50643,-0.10852 0.94051,-0.10852 h 7.07793 z"
         style="font-style:normal;font-variant:normal;font-weight:normal;font-stretch:normal;font-size:24.6944px;font-family:audiowide;-inkscape-font-specification:audiowide"
         id="path42" />
      <path
         d="m 160.44591,110.46584 h -5.47425 v 9.89947 h -3.1712 v -9.89947 h -4.07554 v -3.13503 h 4.07554 v -4.25641 h 3.1712 v 4.25641 h 5.47425 z"
         style="font-style:normal;font-variant:normal;font-weight:normal;font-stretch:normal;font-size:24.6944px;font-family:audiowide;-inkscape-font-specification:audiowide"
         id="path44" />
      <path
         d="m 177.07363,113.29943 h -9.89946 v -3.15915 h 9.89946 z m 1.41077,7.06588 h -11.31023 q -0.65112,0 -1.42282,-0.2291 -0.7717,-0.2291 -1.43488,-0.74759 -0.65112,-0.53054 -1.09726,-1.36253 -0.43408,-0.84405 -0.43408,-2.06188 v -11.31023 q 0,-0.32556 0.12057,-0.61495 0.12058,-0.28939 0.32557,-0.50643 0.21704,-0.21704 0.50642,-0.33762 0.28939,-0.12058 0.62701,-0.12058 h 14.1197 v 3.13503 h -12.56424 v 9.75478 q 0,0.61494 0.32556,0.9405 0.32556,0.32557 0.95257,0.32557 h 11.28611 z"
         style="font-style:normal;font-variant:normal;font-weight:normal;font-stretch:normal;font-size:24.6944px;font-family:audiowide;-inkscape-font-specification:audiowide"
         id="path47" />
      <path
         d="m 195.52209,120.36531 h -3.13503 v -7.23469 q 0,-0.61495 -0.21705,-1.09726 -0.20498,-0.49437 -0.56671,-0.84405 -0.36174,-0.34968 -0.85611,-0.53054 -0.48231,-0.19293 -1.04903,-0.19293 h -5.4863 v 9.89947 h -3.13503 v -11.47904 q 0,-0.32556 0.12058,-0.60289 0.12057,-0.28939 0.33761,-0.49437 0.21704,-0.21704 0.50643,-0.33762 0.28939,-0.12058 0.61495,-0.12058 h 7.06588 q 0.59083,0 1.24195,0.13264 0.66318,0.13263 1.30225,0.43408 0.65112,0.28939 1.22989,0.74758 0.59084,0.44614 1.03698,1.09726 0.45819,0.63907 0.72347,1.48311 0.26527,0.84405 0.26527,1.90514 z"
         style="font-style:normal;font-variant:normal;font-weight:normal;font-stretch:normal;font-size:24.6944px;font-family:audiowide;-inkscape-font-specification:audiowide"
         id="path49" />
      <path
         d="m 212.29451,111.64751 q 0,0.65112 -0.2291,1.41076 -0.2291,0.74759 -0.74759,1.39871 -0.50642,0.63906 -1.33841,1.07314 -0.81994,0.43409 -2.0016,0.43409 h -5.65512 v -2.97828 h 5.65512 q 0.63906,0 0.98874,-0.38585 0.34968,-0.39791 0.34968,-0.97669 0,-0.61495 -0.39791,-0.96462 -0.38585,-0.34968 -0.94051,-0.34968 h -5.65512 q -0.63906,0 -0.98874,0.39791 -0.34967,0.38585 -0.34967,0.96462 v 4.37699 q 0,0.62701 0.38585,0.97668 0.39791,0.34968 0.97668,0.34968 h 5.631 v 2.99034 h -5.65512 q -0.65112,0 -1.41076,-0.2291 -0.74758,-0.2291 -1.39871,-0.73553 -0.63906,-0.51848 -1.07314,-1.33842 -0.43408,-0.83198 -0.43408,-2.01365 v -4.4011 q 0,-0.65112 0.2291,-1.39871 0.22909,-0.75964 0.73552,-1.3987 0.51849,-0.65113 1.33842,-1.08521 0.83199,-0.43408 2.01365,-0.43408 h 5.65512 q 0.65112,0 1.39871,0.2291 0.75964,0.2291 1.3987,0.74758 0.65112,0.50643 1.0852,1.33842 0.43409,0.81993 0.43409,2.0016 z"
         style="font-style:normal;font-variant:normal;font-weight:normal;font-stretch:normal;font-size:24.6944px;font-family:audiowide;-inkscape-font-specification:audiowide"
         id="path51" />
      <path
         d="m 225.81131,110.46584 h -7.05382 q -0.63907,0 -0.96463,0.32556 -0.32556,0.31351 -0.32556,0.92845 v 8.64546 h -3.13503 v -8.64546 q 0,-0.80787 0.20498,-1.44693 0.20499,-0.63907 0.5426,-1.12138 0.34968,-0.49437 0.79582,-0.83199 0.44614,-0.34967 0.92845,-0.56672 0.49437,-0.21704 0.98874,-0.3135 0.50643,-0.10852 0.94051,-0.10852 h 7.07794 z"
         style="font-style:normal;font-variant:normal;font-weight:normal;font-stretch:normal;font-size:24.6944px;font-family:audiowide;-inkscape-font-specification:audiowide"
         id="path53" />
      <path
         d="m 241.9929,121.61932 q 0,0.80787 -0.20498,1.44694 -0.20499,0.65112 -0.54261,1.13343 -0.33761,0.49437 -0.78375,0.83199 -0.44614,0.34968 -0.94051,0.56672 -0.48232,0.21704 -0.98874,0.3135 -0.49437,0.10852 -0.94051,0.10852 h -5.65512 v -3.13503 h 5.65512 q 0.63906,0 0.95256,-0.32556 0.31351,-0.32556 0.31351,-0.94051 v -9.89947 q 0,-0.61494 -0.31351,-0.92845 -0.3135,-0.32556 -0.95256,-0.32556 h -5.65512 q -0.57877,0 -0.91639,0.36174 -0.33762,0.34967 -0.33762,0.89227 v 4.24436 q 0,0.61494 0.32556,0.9405 0.32556,0.32557 0.95257,0.32557 h 5.631 v 3.13503 h -5.65512 q -0.44614,0 -0.94051,-0.0965 -0.49437,-0.10852 -0.98874,-0.32556 -0.48231,-0.21704 -0.92845,-0.55466 -0.44614,-0.34967 -0.78376,-0.83199 -0.33762,-0.49437 -0.5426,-1.13343 -0.20498,-0.65112 -0.20498,-1.45899 v -4.24436 q 0,-0.44613 0.0965,-0.9405 0.10852,-0.49437 0.32556,-0.97669 0.21704,-0.49437 0.55466,-0.94051 0.34968,-0.44614 0.83199,-0.78375 0.49437,-0.33762 1.13344,-0.54261 0.63906,-0.20498 1.44693,-0.20498 h 5.65512 q 0.44614,0 0.94051,0.10852 0.50642,0.0965 0.98874,0.3135 0.49437,0.21705 0.94051,0.56672 0.44614,0.33762 0.78375,0.83199 0.33762,0.48231 0.54261,1.12138 0.20498,0.63906 0.20498,1.44693 z"
         style="font-style:normal;font-variant:normal;font-weight:normal;font-stretch:normal;font-size:24.6944px;font-family:audiowide;-inkscape-font-specification:audiowide"
         id="path55" />
      <path
         d="m 259.23557,121.61932 q 0,0.80787 -0.20499,1.44694 -0.20498,0.65112 -0.5426,1.13343 -0.33762,0.49437 -0.78375,0.83199 -0.44614,0.34968 -0.94051,0.56672 -0.48232,0.21704 -0.97669,0.3135 -0.49437,0.10852 -0.94051,0.10852 h -5.65511 v -3.13503 h 5.65511 q 0.62701,0 0.94051,-0.32556 0.31351,-0.32556 0.31351,-0.94051 v -14.28851 h 3.13503 z m -4.38905,-1.25401 h -5.65511 q -0.67524,0 -1.44694,-0.2291 -0.75964,-0.2291 -1.42282,-0.74759 -0.66318,-0.53054 -1.09726,-1.36253 -0.43408,-0.84405 -0.43408,-2.06188 v -8.6334 h 3.13503 v 8.6334 q 0,0.61494 0.32556,0.9405 0.32556,0.32557 0.96463,0.32557 h 5.63099 z"
         style="font-style:normal;font-variant:normal;font-weight:normal;font-stretch:normal;font-size:24.6944px;font-family:audiowide;-inkscape-font-specification:audiowide"
         id="path57" />
    </g>
    <g
       aria-label="Intelligent Energy Consumption Management"
       id="text94"
       style="font-style:normal;font-variant:normal;font-weight:normal;font-stretch:normal;font-size:9.34861px;line-height:1.25;font-family:System-ui;-inkscape-font-specification:System-ui;fill:#000000;fill-opacity:1;stroke:none;stroke-width:0.264583">
      <path
         d="m 78.409485,50.765701 v -0.617008 h 0.6731 v -4.066645 h -0.6731 v -0.617009 h 2.346501 v 0.617009 h -0.682448 v 4.066645 h 0.682448 v 0.617008 z"
         style="font-style:normal;font-variant:normal;font-weight:500;font-stretch:normal;font-size:9.34861px;font-family:Rokkitt;-inkscape-font-specification:'Rokkitt Medium';stroke-width:0.264583"
         id="path185" />
      <path
         d="M 81.410388,50.765701 V 50.186087 H 82.06479 V 47.652614 H 81.410388 V 47.073 h 1.495777 l 0.0093,0.495477 -0.280459,0.05609 q 0.392642,-0.289807 0.785284,-0.46743 0.392641,-0.177624 0.813329,-0.177624 0.532871,0 0.878769,0.327202 0.345899,0.327201 0.345899,0.916163 v 1.963208 h 0.626357 v 0.579614 h -2.047346 v -0.579614 h 0.551568 v -1.804281 q 0,-0.355247 -0.177624,-0.551568 -0.168275,-0.20567 -0.476779,-0.20567 -0.299155,0 -0.617008,0.14023 -0.308504,0.13088 -0.654403,0.373944 l 0.27111,-0.373944 v 2.421289 h 0.598311 v 0.579614 z"
         style="font-style:normal;font-variant:normal;font-weight:500;font-stretch:normal;font-size:9.34861px;font-family:Rokkitt;-inkscape-font-specification:'Rokkitt Medium';stroke-width:0.264583"
         id="path187" />
      <path
         d="m 87.973095,50.765701 q -0.542219,0 -0.822678,-0.261761 -0.280458,-0.271109 -0.280458,-0.832026 v -2.0193 H 86.299694 V 47.073 h 0.570265 v -1.243365 l 0.878769,-0.261761 V 47.073 h 0.934861 v 0.579614 h -0.934861 v 1.925814 q 0,0.327201 0.102835,0.46743 0.112183,0.130881 0.373945,0.130881 h 0.523522 v 0.588962 z"
         style="font-style:normal;font-variant:normal;font-weight:500;font-stretch:normal;font-size:9.34861px;font-family:Rokkitt;-inkscape-font-specification:'Rokkitt Medium';stroke-width:0.264583"
         id="path189" />
      <path
         d="m 91.310537,50.877885 q -0.598311,0 -1.07509,-0.243064 -0.46743,-0.243064 -0.747889,-0.682449 -0.271109,-0.439384 -0.271109,-1.028347 0,-0.598311 0.261761,-1.028347 0.261761,-0.439385 0.701145,-0.682448 0.448734,-0.243064 1.00965,-0.243064 0.570265,0 0.972256,0.243064 0.411339,0.233715 0.626357,0.663751 0.224366,0.430036 0.224366,1.00965 v 0.196321 h -3.141133 l 0.0093,-0.47678 h 2.281061 q 0,-0.317852 -0.121532,-0.551568 -0.121532,-0.233715 -0.345899,-0.345898 -0.224366,-0.121532 -0.514173,-0.121532 -0.317853,0 -0.570266,0.149578 -0.243063,0.149577 -0.383293,0.430036 -0.140229,0.280458 -0.140229,0.6731 0,0.430036 0.158927,0.73854 0.158926,0.299155 0.439384,0.46743 0.289807,0.158927 0.663752,0.158927 0.392641,0 0.729191,-0.149578 0.345899,-0.158926 0.598311,-0.392642 l 0.280459,0.532871 q -0.27111,0.289807 -0.682449,0.486128 -0.411339,0.196321 -0.962907,0.196321 z"
         style="font-style:normal;font-variant:normal;font-weight:500;font-stretch:normal;font-size:9.34861px;font-family:Rokkitt;-inkscape-font-specification:'Rokkitt Medium';stroke-width:0.264583"
         id="path191" />
      <path
         d="m 93.526149,50.765701 v -0.579614 h 0.626357 v -4.23492 h -0.60766 v -0.579614 h 1.486429 v 4.814534 h 0.560917 v 0.579614 z"
         style="font-style:normal;font-variant:normal;font-weight:500;font-stretch:normal;font-size:9.34861px;font-family:Rokkitt;-inkscape-font-specification:'Rokkitt Medium';stroke-width:0.264583"
         id="path193" />
      <path
         d="m 95.99418,50.765701 v -0.579614 h 0.626357 v -4.23492 h -0.60766 v -0.579614 h 1.486429 v 4.814534 h 0.560917 v 0.579614 z"
         style="font-style:normal;font-variant:normal;font-weight:500;font-stretch:normal;font-size:9.34861px;font-family:Rokkitt;-inkscape-font-specification:'Rokkitt Medium';stroke-width:0.264583"
         id="path195" />
      <path
         d="m 98.424819,50.765701 v -0.579614 h 0.654402 V 47.652614 H 98.434167 V 47.073 h 1.514475 v 3.113087 h 0.617008 v 0.579614 z m 1.000301,-4.468635 q -0.252413,0 -0.420688,-0.149578 -0.168275,-0.158926 -0.168275,-0.40199 0,-0.252413 0.168275,-0.40199 0.168275,-0.158927 0.420688,-0.158927 0.252412,0 0.411339,0.158927 0.168271,0.149577 0.168271,0.40199 0.009,0.243064 -0.158923,0.40199 -0.168275,0.149578 -0.420687,0.149578 z"
         style="font-style:normal;font-variant:normal;font-weight:500;font-stretch:normal;font-size:9.34861px;font-family:Rokkitt;-inkscape-font-specification:'Rokkitt Medium';stroke-width:0.264583"
         id="path197" />
      <path
         d="m 103.01499,52.541937 q -0.3646,0 -0.73854,-0.06544 -0.3646,-0.06544 -0.71985,-0.177624 l 0.15893,-0.626357 q 0.33655,0.09349 0.63571,0.149578 0.3085,0.06544 0.57961,0.06544 0.54222,0 0.84137,-0.252412 0.29916,-0.252412 0.29916,-0.775935 v -0.588962 l 0.25241,-0.07479 q -0.2898,0.308504 -0.66375,0.458082 -0.36459,0.149578 -0.76659,0.149578 -0.52352,0 -0.95355,-0.224367 -0.42069,-0.224367 -0.66375,-0.654403 -0.24307,-0.430036 -0.24307,-1.028347 0,-0.607659 0.23372,-1.037695 0.24306,-0.430036 0.66375,-0.645054 0.42069,-0.224367 0.94421,-0.224367 0.39264,0 0.78528,0.168275 0.39264,0.168275 0.60766,0.439385 l -0.18697,0.0187 V 47.073 h 1.43968 v 0.579614 h -0.57026 v 3.122436 q 0,0.617008 -0.25241,1.00965 -0.24307,0.392641 -0.68245,0.570265 -0.43004,0.186972 -1.0003,0.186972 z m 0.0374,-4.917369 q -0.31785,0 -0.57026,0.149578 -0.25242,0.149578 -0.39265,0.439385 -0.14022,0.289807 -0.14022,0.719843 0,0.392641 0.14957,0.6731 0.15893,0.271109 0.42069,0.411338 0.26176,0.14023 0.59831,0.14023 0.29916,0 0.61701,-0.130881 0.3272,-0.13088 0.57026,-0.373944 l -0.23371,0.411339 -0.009,-2.29041 0.23372,0.364596 q -0.26176,-0.233715 -0.59831,-0.373944 -0.32721,-0.14023 -0.64506,-0.14023 z"
         style="font-style:normal;font-variant:normal;font-weight:500;font-stretch:normal;font-size:9.34861px;font-family:Rokkitt;-inkscape-font-specification:'Rokkitt Medium';stroke-width:0.264583"
         id="path199" />
      <path
         d="m 107.93235,50.877885 q -0.59831,0 -1.07509,-0.243064 -0.46743,-0.243064 -0.74789,-0.682449 -0.27111,-0.439384 -0.27111,-1.028347 0,-0.598311 0.26176,-1.028347 0.26176,-0.439385 0.70114,-0.682448 0.44874,-0.243064 1.00965,-0.243064 0.57027,0 0.97226,0.243064 0.41134,0.233715 0.62636,0.663751 0.22436,0.430036 0.22436,1.00965 v 0.196321 h -3.14113 l 0.009,-0.47678 h 2.28106 q 0,-0.317852 -0.12153,-0.551568 -0.12153,-0.233715 -0.3459,-0.345898 -0.22437,-0.121532 -0.51417,-0.121532 -0.31786,0 -0.57027,0.149578 -0.24306,0.149577 -0.38329,0.430036 -0.14023,0.280458 -0.14023,0.6731 0,0.430036 0.15892,0.73854 0.15893,0.299155 0.43939,0.46743 0.28981,0.158927 0.66375,0.158927 0.39264,0 0.72919,-0.149578 0.3459,-0.158926 0.59831,-0.392642 l 0.28046,0.532871 q -0.27111,0.289807 -0.68245,0.486128 -0.41134,0.196321 -0.9629,0.196321 z"
         style="font-style:normal;font-variant:normal;font-weight:500;font-stretch:normal;font-size:9.34861px;font-family:Rokkitt;-inkscape-font-specification:'Rokkitt Medium';stroke-width:0.264583"
         id="path201" />
      <path
         d="m 110.11056,50.765701 v -0.579614 h 0.65441 v -2.533473 h -0.65441 V 47.073 h 1.49578 l 0.009,0.495477 -0.28046,0.05609 q 0.39264,-0.289807 0.78528,-0.46743 0.39265,-0.177624 0.81333,-0.177624 0.53287,0 0.87877,0.327202 0.3459,0.327201 0.3459,0.916163 v 1.963208 h 0.62636 v 0.579614 h -2.04735 v -0.579614 h 0.55157 v -1.804281 q 0,-0.355247 -0.17762,-0.551568 -0.16828,-0.20567 -0.47678,-0.20567 -0.29916,0 -0.61701,0.14023 -0.3085,0.13088 -0.6544,0.373944 l 0.27111,-0.373944 v 2.421289 h 0.59831 v 0.579614 z"
         style="font-style:normal;font-variant:normal;font-weight:500;font-stretch:normal;font-size:9.34861px;font-family:Rokkitt;-inkscape-font-specification:'Rokkitt Medium';stroke-width:0.264583"
         id="path203" />
      <path
         d="m 116.67327,50.765701 q -0.54222,0 -0.82268,-0.261761 -0.28045,-0.271109 -0.28045,-0.832026 v -2.0193 h -0.57027 V 47.073 h 0.57027 v -1.243365 l 0.87876,-0.261761 V 47.073 h 0.93487 v 0.579614 h -0.93487 v 1.925814 q 0,0.327201 0.10284,0.46743 0.11218,0.130881 0.37394,0.130881 h 0.52353 v 0.588962 z"
         style="font-style:normal;font-variant:normal;font-weight:500;font-stretch:normal;font-size:9.34861px;font-family:Rokkitt;-inkscape-font-specification:'Rokkitt Medium';stroke-width:0.264583"
         id="path205" />
      <path
         d="m 120.96426,50.765701 v -0.617008 h 0.68245 v -4.066645 h -0.68245 v -0.617009 h 4.7304 v 1.645356 h -0.70115 v -1.028347 h -2.3652 v 1.636006 h 1.42099 v -0.588962 h 0.49548 v 1.81363 h -0.49548 v -0.607659 h -1.42099 v 1.804281 h 2.41194 v -1.065741 h 0.6918 v 1.692098 z"
         style="font-style:normal;font-variant:normal;font-weight:500;font-stretch:normal;font-size:9.34861px;font-family:Rokkitt;-inkscape-font-specification:'Rokkitt Medium';stroke-width:0.264583"
         id="path207" />
      <path
         d="m 126.38645,50.765701 v -0.579614 h 0.6544 v -2.533473 h -0.6544 V 47.073 h 1.49578 l 0.009,0.495477 -0.28046,0.05609 q 0.39264,-0.289807 0.78528,-0.46743 0.39264,-0.177624 0.81333,-0.177624 0.53287,0 0.87877,0.327202 0.3459,0.327201 0.3459,0.916163 v 1.963208 h 0.62636 v 0.579614 h -2.04735 v -0.579614 h 0.55157 v -1.804281 q 0,-0.355247 -0.17763,-0.551568 -0.16827,-0.20567 -0.47677,-0.20567 -0.29916,0 -0.61701,0.14023 -0.30851,0.13088 -0.65441,0.373944 l 0.27111,-0.373944 v 2.421289 h 0.59831 v 0.579614 z"
         style="font-style:normal;font-variant:normal;font-weight:500;font-stretch:normal;font-size:9.34861px;font-family:Rokkitt;-inkscape-font-specification:'Rokkitt Medium';stroke-width:0.264583"
         id="path209" />
      <path
         d="m 133.40724,50.877885 q -0.59831,0 -1.07509,-0.243064 -0.46743,-0.243064 -0.74789,-0.682449 -0.27111,-0.439384 -0.27111,-1.028347 0,-0.598311 0.26176,-1.028347 0.26176,-0.439385 0.70115,-0.682448 0.44873,-0.243064 1.00965,-0.243064 0.57026,0 0.97225,0.243064 0.41134,0.233715 0.62636,0.663751 0.22437,0.430036 0.22437,1.00965 v 0.196321 h -3.14114 l 0.009,-0.47678 h 2.28106 q 0,-0.317852 -0.12153,-0.551568 -0.12153,-0.233715 -0.3459,-0.345898 -0.22436,-0.121532 -0.51417,-0.121532 -0.31785,0 -0.57027,0.149578 -0.24306,0.149577 -0.38329,0.430036 -0.14023,0.280458 -0.14023,0.6731 0,0.430036 0.15893,0.73854 0.15892,0.299155 0.43938,0.46743 0.28981,0.158927 0.66375,0.158927 0.39265,0 0.7292,-0.149578 0.34589,-0.158926 0.59831,-0.392642 l 0.28046,0.532871 q -0.27111,0.289807 -0.68245,0.486128 -0.41134,0.196321 -0.96291,0.196321 z"
         style="font-style:normal;font-variant:normal;font-weight:500;font-stretch:normal;font-size:9.34861px;font-family:Rokkitt;-inkscape-font-specification:'Rokkitt Medium';stroke-width:0.264583"
         id="path211" />
      <path
         d="m 135.68829,50.765701 v -0.579614 h 0.64506 v -2.533473 h -0.64506 V 47.073 h 1.52383 v 1.112485 l -0.14023,-0.0093 q 0.11218,-0.448733 0.28046,-0.691797 0.17762,-0.252412 0.39264,-0.355247 0.21502,-0.112183 0.43003,-0.112183 0.19633,0 0.37395,0.04674 0.18697,0.04674 0.36459,0.13088 l -0.19632,0.766586 q -0.15892,-0.102834 -0.3272,-0.149577 -0.16827,-0.05609 -0.35524,-0.05609 -0.31786,0 -0.57027,0.252412 -0.24306,0.252413 -0.24306,0.747889 l -0.009,1.430337 h 0.61701 v 0.579614 z"
         style="font-style:normal;font-variant:normal;font-weight:500;font-stretch:normal;font-size:9.34861px;font-family:Rokkitt;-inkscape-font-specification:'Rokkitt Medium';stroke-width:0.264583"
         id="path213" />
      <path
         d="m 141.31615,52.541937 q -0.36459,0 -0.73854,-0.06544 -0.36459,-0.06544 -0.71984,-0.177624 l 0.15893,-0.626357 q 0.33655,0.09349 0.6357,0.149578 0.30851,0.06544 0.57962,0.06544 0.54222,0 0.84137,-0.252412 0.29916,-0.252412 0.29916,-0.775935 v -0.588962 l 0.25241,-0.07479 q -0.28981,0.308504 -0.66375,0.458082 -0.3646,0.149578 -0.76659,0.149578 -0.52352,0 -0.95356,-0.224367 -0.42068,-0.224367 -0.66375,-0.654403 -0.24306,-0.430036 -0.24306,-1.028347 0,-0.607659 0.23371,-1.037695 0.24307,-0.430036 0.66375,-0.645054 0.42069,-0.224367 0.94421,-0.224367 0.39265,0 0.78529,0.168275 0.39264,0.168275 0.60766,0.439385 l -0.18698,0.0187 V 47.073 h 1.43969 v 0.579614 h -0.57026 v 3.122436 q 0,0.617008 -0.25242,1.00965 -0.24306,0.392641 -0.68245,0.570265 -0.43003,0.186972 -1.0003,0.186972 z m 0.0374,-4.917369 q -0.31786,0 -0.57027,0.149578 -0.25241,0.149578 -0.39264,0.439385 -0.14023,0.289807 -0.14023,0.719843 0,0.392641 0.14958,0.6731 0.15893,0.271109 0.42069,0.411338 0.26176,0.14023 0.59831,0.14023 0.29915,0 0.61701,-0.130881 0.3272,-0.13088 0.57026,-0.373944 l -0.23371,0.411339 -0.009,-2.29041 0.23371,0.364596 q -0.26176,-0.233715 -0.59831,-0.373944 -0.3272,-0.14023 -0.64505,-0.14023 z"
         style="font-style:normal;font-variant:normal;font-weight:500;font-stretch:normal;font-size:9.34861px;font-family:Rokkitt;-inkscape-font-specification:'Rokkitt Medium';stroke-width:0.264583"
         id="path215" />
      <path
         d="m 144.84057,52.280176 v -0.682448 h 0.39264 q 0.24307,0 0.39264,-0.04674 0.14958,-0.03739 0.25242,-0.158927 0.11218,-0.121532 0.20567,-0.383293 l 0.18697,-0.476779 h -0.30851 l -1.37424,-2.879372 H 143.9805 V 47.073 h 2.0193 v 0.579614 h -0.51417 l 1.00965,2.271712 0.91616,-2.271712 h -0.58896 V 47.073 h 1.94451 v 0.579614 h -0.53287 l -1.42099,3.337454 q -0.18697,0.439385 -0.3459,0.719843 -0.15893,0.289807 -0.42069,0.430036 -0.26176,0.140229 -0.74789,0.140229 z"
         style="font-style:normal;font-variant:normal;font-weight:500;font-stretch:normal;font-size:9.34861px;font-family:Rokkitt;-inkscape-font-specification:'Rokkitt Medium';stroke-width:0.264583"
         id="path217" />
      <path
         d="m 154.93704,50.868536 q -0.6357,0 -1.15922,-0.196321 -0.51418,-0.205669 -0.89747,-0.560916 -0.38329,-0.364596 -0.58896,-0.869421 -0.19632,-0.504825 -0.19632,-1.131182 0,-0.80398 0.3459,-1.420989 0.35524,-0.626356 0.9816,-0.972255 0.62636,-0.345899 1.46773,-0.345899 0.53287,0 0.94421,0.158927 0.42069,0.158926 0.6918,0.448733 0.28046,0.289807 0.40199,0.6731 l -0.25241,-0.07479 v -1.112485 h 0.69179 v 1.68275 l -0.60766,0.0093 q -0.28045,-0.570265 -0.71049,-0.822678 -0.42069,-0.261761 -1.019,-0.261761 -0.59831,0 -1.03769,0.27111 -0.43004,0.261761 -0.66376,0.719843 -0.23371,0.458082 -0.23371,1.037695 0,0.467431 0.14023,0.850724 0.14023,0.373944 0.39264,0.645054 0.26176,0.27111 0.60766,0.420687 0.3459,0.149578 0.75724,0.149578 0.39264,0 0.72919,-0.121532 0.3459,-0.13088 0.60766,-0.40199 0.27111,-0.280458 0.41134,-0.719843 l 0.74789,0.317853 q -0.19633,0.570265 -0.57027,0.934861 -0.37394,0.355247 -0.88812,0.523522 -0.50482,0.158926 -1.09379,0.168275 z"
         style="font-style:normal;font-variant:normal;font-weight:500;font-stretch:normal;font-size:9.34861px;font-family:Rokkitt;-inkscape-font-specification:'Rokkitt Medium';stroke-width:0.264583"
         id="path219" />
      <path
         d="m 160.23769,50.877885 q -0.59831,0 -1.05639,-0.243064 -0.44873,-0.252413 -0.70114,-0.691797 -0.25242,-0.439385 -0.25242,-1.028347 0,-0.588963 0.25242,-1.018999 0.25241,-0.439385 0.70114,-0.682448 0.45808,-0.243064 1.05639,-0.243064 0.60766,0 1.0564,0.243064 0.45808,0.243063 0.71049,0.682448 0.25241,0.430036 0.25241,1.00965 0,0.588962 -0.25241,1.037696 -0.25241,0.439384 -0.71049,0.691797 -0.44874,0.243064 -1.0564,0.243064 z m 0,-0.682449 q 0.35525,0 0.60766,-0.158926 0.26177,-0.158927 0.40199,-0.448734 0.14958,-0.289806 0.14958,-0.682448 0,-0.383293 -0.14958,-0.663751 -0.14022,-0.280459 -0.40199,-0.430036 -0.25241,-0.158927 -0.60766,-0.158927 -0.34589,0 -0.60765,0.158927 -0.25242,0.149577 -0.39265,0.439384 -0.14023,0.280459 -0.14023,0.663752 0,0.383293 0.14023,0.673099 0.14023,0.289807 0.39265,0.448734 0.26176,0.158926 0.60765,0.158926 z"
         style="font-style:normal;font-variant:normal;font-weight:500;font-stretch:normal;font-size:9.34861px;font-family:Rokkitt;-inkscape-font-specification:'Rokkitt Medium';stroke-width:0.264583"
         id="path221" />
      <path
         d="m 162.66832,50.765701 v -0.579614 h 0.6544 v -2.533473 h -0.6544 V 47.073 h 1.49578 l 0.009,0.495477 -0.28045,0.05609 q 0.39264,-0.289807 0.78528,-0.46743 0.39264,-0.177624 0.81333,-0.177624 0.53287,0 0.87877,0.327202 0.3459,0.327201 0.3459,0.916163 v 1.963208 h 0.62635 v 0.579614 h -2.04734 v -0.579614 h 0.55157 v -1.804281 q 0,-0.355247 -0.17763,-0.551568 -0.16827,-0.20567 -0.47678,-0.20567 -0.29915,0 -0.61701,0.14023 -0.3085,0.13088 -0.6544,0.373944 l 0.27111,-0.373944 v 2.421289 h 0.59831 v 0.579614 z"
         style="font-style:normal;font-variant:normal;font-weight:500;font-stretch:normal;font-size:9.34861px;font-family:Rokkitt;-inkscape-font-specification:'Rokkitt Medium';stroke-width:0.264583"
         id="path223" />
      <path
         d="m 169.71716,50.859187 q -0.29916,0 -0.57962,-0.07479 -0.27111,-0.07479 -0.47678,-0.215019 -0.19632,-0.140229 -0.29915,-0.317852 l 0.16827,0.05609 v 0.458082 h -0.62635 v -1.262062 h 0.57026 l 0.0561,0.579614 -0.15892,-0.411339 q 0.13088,0.308504 0.46743,0.476779 0.33655,0.168275 0.71049,0.168275 0.31786,0 0.52352,-0.121532 0.21502,-0.13088 0.21502,-0.355247 0,-0.27111 -0.18697,-0.373944 -0.18697,-0.112184 -0.59831,-0.20567 l -0.46743,-0.09349 q -0.55157,-0.140229 -0.85072,-0.373944 -0.28981,-0.233716 -0.28981,-0.747889 0,-0.504825 0.38329,-0.785283 0.39264,-0.280459 0.98161,-0.280459 0.25241,0 0.50482,0.06544 0.26176,0.06544 0.45808,0.19632 0.20567,0.121532 0.28046,0.289807 l -0.18697,-0.02805 v -0.448733 h 0.64505 v 1.243365 h -0.57961 l -0.10284,-0.80398 0.16828,0.542219 q -0.0467,-0.149578 -0.21502,-0.261761 -0.15893,-0.112183 -0.37394,-0.177623 -0.21502,-0.06544 -0.43004,-0.06544 -0.26176,0 -0.47678,0.112184 -0.20567,0.112183 -0.20567,0.345898 0,0.196321 0.14958,0.299156 0.14958,0.102834 0.48613,0.177623 l 0.44873,0.102835 q 0.38329,0.08414 0.66375,0.215018 0.28981,0.121532 0.44874,0.355247 0.16827,0.224367 0.16827,0.626357 0,0.364596 -0.19632,0.617008 -0.19632,0.243064 -0.51417,0.364596 -0.31786,0.112183 -0.68245,0.112183 z"
         style="font-style:normal;font-variant:normal;font-weight:500;font-stretch:normal;font-size:9.34861px;font-family:Rokkitt;-inkscape-font-specification:'Rokkitt Medium';stroke-width:0.264583"
         id="path225" />
      <path
         d="m 173.39116,50.859187 q -0.43004,0 -0.7105,-0.168275 -0.27111,-0.177623 -0.40199,-0.458081 -0.13088,-0.289807 -0.13088,-0.626357 v -1.95386 h -0.57026 V 47.073 h 1.45838 v 2.42129 q 0,0.327202 0.14958,0.523522 0.15893,0.186973 0.48613,0.186973 0.36459,0 0.6731,-0.168275 0.31785,-0.177624 0.59831,-0.486128 l -0.23372,0.430036 V 47.652614 H 174.111 V 47.073 h 1.46773 v 3.113087 h 0.63571 v 0.579614 h -1.45838 l -0.0374,-0.579614 0.27111,-0.06544 q -0.3646,0.345899 -0.76659,0.54222 -0.39264,0.19632 -0.83202,0.19632 z"
         style="font-style:normal;font-variant:normal;font-weight:500;font-stretch:normal;font-size:9.34861px;font-family:Rokkitt;-inkscape-font-specification:'Rokkitt Medium';stroke-width:0.264583"
         id="path227" />
      <path
         d="m 176.50424,50.765701 v -0.579614 h 0.6544 v -2.533473 h -0.64505 V 47.073 h 1.48643 l 0.009,0.458082 -0.27111,0.09349 q 0.38329,-0.289807 0.77593,-0.46743 0.40199,-0.177624 0.79463,-0.177624 0.58897,0 0.90682,0.364596 0.31785,0.355247 0.31785,0.897467 v 1.94451 h 0.62636 v 0.579614 h -2.0567 v -0.579614 h 0.56092 v -1.804281 q 0,-0.355247 -0.17762,-0.551568 -0.16828,-0.20567 -0.46743,-0.20567 -0.28046,0 -0.61701,0.14023 -0.3272,0.13088 -0.64506,0.355247 l 0.27111,-0.345899 v 2.411941 h 0.59832 v 0.579614 z m 5.16043,0 v -0.579614 h 0.55157 v -1.804281 q 0,-0.355247 -0.17762,-0.551568 -0.16828,-0.20567 -0.46743,-0.20567 -0.28981,0 -0.59831,0.130881 -0.29916,0.121532 -0.57027,0.317853 l -0.14023,-0.439385 q 0.38329,-0.289807 0.76659,-0.467431 0.39264,-0.186972 0.84137,-0.186972 0.52352,0 0.86942,0.327202 0.35525,0.327201 0.35525,0.916163 v 1.963208 h 0.61701 v 0.579614 z"
         style="font-style:normal;font-variant:normal;font-weight:500;font-stretch:normal;font-size:9.34861px;font-family:Rokkitt;-inkscape-font-specification:'Rokkitt Medium';stroke-width:0.264583"
         id="path229" />
      <path
         d="m 183.90832,52.25213 v -0.579614 h 0.61701 v -4.019902 h -0.59831 V 47.073 h 1.41164 l 0.0187,0.420688 -0.25241,0.13088 q 0.2898,-0.299155 0.6731,-0.46743 0.38329,-0.177624 0.81332,-0.177624 0.50483,0 0.89747,0.224367 0.40199,0.224367 0.62636,0.645054 0.23371,0.420687 0.23371,1.028347 0,0.617008 -0.25241,1.065742 -0.24306,0.439384 -0.6731,0.682448 -0.42069,0.233715 -0.92551,0.233715 -0.28981,0 -0.54222,-0.07479 -0.24306,-0.07479 -0.43004,-0.186973 -0.18697,-0.121532 -0.28046,-0.271109 l 0.15893,-0.06544 -0.009,1.41164 h 0.6918 v 0.579614 z m 2.3652,-2.047345 q 0.49548,0 0.83203,-0.327202 0.33655,-0.327201 0.33655,-0.953558 0,-0.60766 -0.31785,-0.934861 -0.31786,-0.33655 -0.81333,-0.33655 -0.15893,0 -0.37395,0.05609 -0.20567,0.05609 -0.42069,0.177623 -0.20566,0.121532 -0.34589,0.317853 l 0.22436,-0.430036 0.009,2.243666 -0.21502,-0.299155 q 0.21502,0.233715 0.49548,0.364596 0.28981,0.121532 0.58896,0.121532 z"
         style="font-style:normal;font-variant:normal;font-weight:500;font-stretch:normal;font-size:9.34861px;font-family:Rokkitt;-inkscape-font-specification:'Rokkitt Medium';stroke-width:0.264583"
         id="path231" />
      <path
         d="m 190.43364,50.765701 q -0.54222,0 -0.82268,-0.261761 -0.28046,-0.271109 -0.28046,-0.832026 v -2.0193 h -0.57027 V 47.073 h 0.57027 v -1.243365 l 0.87877,-0.261761 V 47.073 h 0.93486 v 0.579614 h -0.93486 v 1.925814 q 0,0.327201 0.10283,0.46743 0.11219,0.130881 0.37395,0.130881 h 0.52352 v 0.588962 z"
         style="font-style:normal;font-variant:normal;font-weight:500;font-stretch:normal;font-size:9.34861px;font-family:Rokkitt;-inkscape-font-specification:'Rokkitt Medium';stroke-width:0.264583"
         id="path233" />
      <path
         d="m 191.64895,50.765701 v -0.579614 h 0.6544 V 47.652614 H 191.6583 V 47.073 h 1.51447 v 3.113087 h 0.61701 v 0.579614 z m 1.0003,-4.468635 q -0.25241,0 -0.42069,-0.149578 -0.16827,-0.158926 -0.16827,-0.40199 0,-0.252413 0.16827,-0.40199 0.16828,-0.158927 0.42069,-0.158927 0.25241,0 0.41134,0.158927 0.16827,0.149577 0.16827,0.40199 0.009,0.243064 -0.15892,0.40199 -0.16828,0.149578 -0.42069,0.149578 z"
         style="font-style:normal;font-variant:normal;font-weight:500;font-stretch:normal;font-size:9.34861px;font-family:Rokkitt;-inkscape-font-specification:'Rokkitt Medium';stroke-width:0.264583"
         id="path235" />
      <path
         d="m 196.22041,50.877885 q -0.59831,0 -1.05639,-0.243064 -0.44873,-0.252413 -0.70114,-0.691797 -0.25242,-0.439385 -0.25242,-1.028347 0,-0.588963 0.25242,-1.018999 0.25241,-0.439385 0.70114,-0.682448 0.45808,-0.243064 1.05639,-0.243064 0.60766,0 1.0564,0.243064 0.45808,0.243063 0.71049,0.682448 0.25241,0.430036 0.25241,1.00965 0,0.588962 -0.25241,1.037696 -0.25241,0.439384 -0.71049,0.691797 -0.44874,0.243064 -1.0564,0.243064 z m 0,-0.682449 q 0.35525,0 0.60766,-0.158926 0.26177,-0.158927 0.40199,-0.448734 0.14958,-0.289806 0.14958,-0.682448 0,-0.383293 -0.14958,-0.663751 -0.14022,-0.280459 -0.40199,-0.430036 -0.25241,-0.158927 -0.60766,-0.158927 -0.34589,0 -0.60766,0.158927 -0.25241,0.149577 -0.39264,0.439384 -0.14023,0.280459 -0.14023,0.663752 0,0.383293 0.14023,0.673099 0.14023,0.289807 0.39264,0.448734 0.26177,0.158926 0.60766,0.158926 z"
         style="font-style:normal;font-variant:normal;font-weight:500;font-stretch:normal;font-size:9.34861px;font-family:Rokkitt;-inkscape-font-specification:'Rokkitt Medium';stroke-width:0.264583"
         id="path237" />
      <path
         d="m 198.65104,50.765701 v -0.579614 h 0.6544 v -2.533473 h -0.6544 V 47.073 h 1.49578 l 0.009,0.495477 -0.28045,0.05609 q 0.39264,-0.289807 0.78528,-0.46743 0.39264,-0.177624 0.81333,-0.177624 0.53287,0 0.87877,0.327202 0.3459,0.327201 0.3459,0.916163 v 1.963208 h 0.62635 v 0.579614 H 201.278 v -0.579614 h 0.55157 v -1.804281 q 0,-0.355247 -0.17763,-0.551568 -0.16827,-0.20567 -0.47678,-0.20567 -0.29915,0 -0.61701,0.14023 -0.3085,0.13088 -0.6544,0.373944 l 0.27111,-0.373944 v 2.421289 h 0.59831 v 0.579614 z"
         style="font-style:normal;font-variant:normal;font-weight:500;font-stretch:normal;font-size:9.34861px;font-family:Rokkitt;-inkscape-font-specification:'Rokkitt Medium';stroke-width:0.264583"
         id="path239" />
      <path
         d="m 206.63473,50.765701 v -0.617008 h 0.66375 v -4.066645 h -0.66375 v -0.617009 h 2.0193 l 1.57991,3.477683 1.50513,-3.477683 h 2.00995 v 0.617009 h -0.6544 v 4.066645 h 0.6544 v 0.617008 h -2.23432 v -0.617008 h 0.63571 v -3.842279 l -1.85102,4.206875 h -0.3646 l -1.87907,-4.206875 v 3.842279 h 0.6357 v 0.617008 z"
         style="font-style:normal;font-variant:normal;font-weight:500;font-stretch:normal;font-size:9.34861px;font-family:Rokkitt;-inkscape-font-specification:'Rokkitt Medium';stroke-width:0.264583"
         id="path241" />
      <path
         d="m 215.74027,50.868536 q -0.57027,0 -0.91617,-0.308504 -0.33655,-0.317853 -0.33655,-0.785283 0,-0.420688 0.19632,-0.6731 0.20567,-0.261761 0.54222,-0.373945 0.3459,-0.112183 0.73854,-0.112183 0.31786,0 0.63571,0.05609 0.31785,0.05609 0.58896,0.140229 l -0.26176,0.04674 v -0.448733 q 0,-0.411339 -0.22437,-0.60766 -0.21501,-0.205669 -0.59831,-0.205669 -0.26176,0 -0.59831,0.09349 -0.33655,0.08414 -0.6544,0.243063 l -0.23372,-0.542219 q 0.3646,-0.205669 0.78529,-0.308504 0.43003,-0.102835 0.79463,-0.102835 0.50482,0 0.86007,0.168275 0.3646,0.158927 0.55157,0.467431 0.18697,0.308504 0.18697,0.729191 v 1.841676 h 0.54222 v 0.579614 h -1.29011 l -0.0935,-0.542219 h 0.28045 q -0.34589,0.327201 -0.70114,0.486128 -0.3459,0.158926 -0.79463,0.158926 z m 0.20567,-0.542219 q 0.3085,0 0.60766,-0.130881 0.3085,-0.140229 0.62635,-0.420687 l -0.25241,0.33655 v -1.037696 l 0.20567,0.177623 q -0.20567,-0.07479 -0.48613,-0.121531 -0.27111,-0.04674 -0.56091,-0.04674 -0.29916,0 -0.54222,0.140229 -0.24307,0.13088 -0.24307,0.495476 0,0.261761 0.16828,0.439385 0.16827,0.168275 0.47678,0.168275 z"
         style="font-style:normal;font-variant:normal;font-weight:500;font-stretch:normal;font-size:9.34861px;font-family:Rokkitt;-inkscape-font-specification:'Rokkitt Medium';stroke-width:0.264583"
         id="path243" />
      <path
         d="m 218.65703,50.765701 v -0.579614 h 0.6544 v -2.533473 h -0.6544 V 47.073 h 1.49577 l 0.009,0.495477 -0.28046,0.05609 q 0.39265,-0.289807 0.78529,-0.46743 0.39264,-0.177624 0.81333,-0.177624 0.53287,0 0.87877,0.327202 0.34589,0.327201 0.34589,0.916163 v 1.963208 h 0.62636 v 0.579614 h -2.04734 v -0.579614 h 0.55156 v -1.804281 q 0,-0.355247 -0.17762,-0.551568 -0.16827,-0.20567 -0.47678,-0.20567 -0.29915,0 -0.61701,0.14023 -0.3085,0.13088 -0.6544,0.373944 l 0.27111,-0.373944 v 2.421289 h 0.59831 v 0.579614 z"
         style="font-style:normal;font-variant:normal;font-weight:500;font-stretch:normal;font-size:9.34861px;font-family:Rokkitt;-inkscape-font-specification:'Rokkitt Medium';stroke-width:0.264583"
         id="path245" />
      <path
         d="m 224.96732,50.868536 q -0.57027,0 -0.91617,-0.308504 -0.33655,-0.317853 -0.33655,-0.785283 0,-0.420688 0.19633,-0.6731 0.20566,-0.261761 0.54221,-0.373945 0.3459,-0.112183 0.73854,-0.112183 0.31786,0 0.63571,0.05609 0.31785,0.05609 0.58896,0.140229 l -0.26176,0.04674 v -0.448733 q 0,-0.411339 -0.22437,-0.60766 -0.21501,-0.205669 -0.59831,-0.205669 -0.26176,0 -0.59831,0.09349 -0.33655,0.08414 -0.6544,0.243063 l -0.23372,-0.542219 q 0.3646,-0.205669 0.78529,-0.308504 0.43003,-0.102835 0.79463,-0.102835 0.50482,0 0.86007,0.168275 0.3646,0.158927 0.55157,0.467431 0.18697,0.308504 0.18697,0.729191 v 1.841676 h 0.54222 v 0.579614 h -1.29011 l -0.0935,-0.542219 h 0.28046 q -0.3459,0.327201 -0.70115,0.486128 -0.3459,0.158926 -0.79463,0.158926 z m 0.20567,-0.542219 q 0.3085,0 0.60766,-0.130881 0.3085,-0.140229 0.62635,-0.420687 l -0.25241,0.33655 v -1.037696 l 0.20567,0.177623 q -0.20567,-0.07479 -0.48613,-0.121531 -0.27111,-0.04674 -0.56091,-0.04674 -0.29916,0 -0.54222,0.140229 -0.24307,0.13088 -0.24307,0.495476 0,0.261761 0.16828,0.439385 0.16827,0.168275 0.47678,0.168275 z"
         style="font-style:normal;font-variant:normal;font-weight:500;font-stretch:normal;font-size:9.34861px;font-family:Rokkitt;-inkscape-font-specification:'Rokkitt Medium';stroke-width:0.264583"
         id="path247" />
      <path
         d="m 229.94077,52.541937 q -0.36459,0 -0.73854,-0.06544 -0.36459,-0.06544 -0.71984,-0.177624 l 0.15893,-0.626357 q 0.33654,0.09349 0.6357,0.149578 0.3085,0.06544 0.57961,0.06544 0.54222,0 0.84138,-0.252412 0.29915,-0.252412 0.29915,-0.775935 v -0.588962 l 0.25242,-0.07479 q -0.28981,0.308504 -0.66375,0.458082 -0.3646,0.149578 -0.76659,0.149578 -0.52352,0 -0.95356,-0.224367 -0.42069,-0.224367 -0.66375,-0.654403 -0.24306,-0.430036 -0.24306,-1.028347 0,-0.607659 0.23371,-1.037695 0.24307,-0.430036 0.66375,-0.645054 0.42069,-0.224367 0.94421,-0.224367 0.39264,0 0.78529,0.168275 0.39264,0.168275 0.60766,0.439385 l -0.18698,0.0187 V 47.073 h 1.43969 v 0.579614 h -0.57027 v 3.122436 q 0,0.617008 -0.25241,1.00965 -0.24306,0.392641 -0.68245,0.570265 -0.43003,0.186972 -1.0003,0.186972 z m 0.0374,-4.917369 q -0.31786,0 -0.57027,0.149578 -0.25241,0.149578 -0.39264,0.439385 -0.14023,0.289807 -0.14023,0.719843 0,0.392641 0.14958,0.6731 0.15892,0.271109 0.42069,0.411338 0.26176,0.14023 0.59831,0.14023 0.29915,0 0.617,-0.130881 0.32721,-0.13088 0.57027,-0.373944 l -0.23372,0.411339 -0.009,-2.29041 0.23371,0.364596 q -0.26176,-0.233715 -0.59831,-0.373944 -0.3272,-0.14023 -0.64505,-0.14023 z"
         style="font-style:normal;font-variant:normal;font-weight:500;font-stretch:normal;font-size:9.34861px;font-family:Rokkitt;-inkscape-font-specification:'Rokkitt Medium';stroke-width:0.264583"
         id="path249" />
      <path
         d="m 234.85814,50.877885 q -0.59831,0 -1.07509,-0.243064 -0.46743,-0.243064 -0.74789,-0.682449 -0.27111,-0.439384 -0.27111,-1.028347 0,-0.598311 0.26176,-1.028347 0.26176,-0.439385 0.70115,-0.682448 0.44873,-0.243064 1.00965,-0.243064 0.57026,0 0.97225,0.243064 0.41134,0.233715 0.62636,0.663751 0.22437,0.430036 0.22437,1.00965 v 0.196321 h -3.14114 l 0.009,-0.47678 h 2.28106 q 0,-0.317852 -0.12153,-0.551568 -0.12153,-0.233715 -0.3459,-0.345898 -0.22436,-0.121532 -0.51417,-0.121532 -0.31785,0 -0.57026,0.149578 -0.24307,0.149577 -0.3833,0.430036 -0.14023,0.280458 -0.14023,0.6731 0,0.430036 0.15893,0.73854 0.15893,0.299155 0.43938,0.46743 0.28981,0.158927 0.66376,0.158927 0.39264,0 0.72919,-0.149578 0.3459,-0.158926 0.59831,-0.392642 l 0.28046,0.532871 q -0.27111,0.289807 -0.68245,0.486128 -0.41134,0.196321 -0.96291,0.196321 z"
         style="font-style:normal;font-variant:normal;font-weight:500;font-stretch:normal;font-size:9.34861px;font-family:Rokkitt;-inkscape-font-specification:'Rokkitt Medium';stroke-width:0.264583"
         id="path251" />
      <path
         d="m 237.03635,50.765701 v -0.579614 h 0.6544 v -2.533473 h -0.64506 V 47.073 h 1.48643 l 0.009,0.458082 -0.27111,0.09349 q 0.38329,-0.289807 0.77594,-0.46743 0.40199,-0.177624 0.79463,-0.177624 0.58896,0 0.90681,0.364596 0.31786,0.355247 0.31786,0.897467 v 1.94451 h 0.62635 v 0.579614 h -2.05669 v -0.579614 h 0.56092 v -1.804281 q 0,-0.355247 -0.17763,-0.551568 -0.16827,-0.20567 -0.46743,-0.20567 -0.28046,0 -0.61701,0.14023 -0.3272,0.13088 -0.64505,0.355247 l 0.27111,-0.345899 v 2.411941 h 0.59831 v 0.579614 z m 5.16043,0 v -0.579614 h 0.55157 v -1.804281 q 0,-0.355247 -0.17763,-0.551568 -0.16827,-0.20567 -0.46743,-0.20567 -0.28981,0 -0.59831,0.130881 -0.29915,0.121532 -0.57026,0.317853 l -0.14023,-0.439385 q 0.38329,-0.289807 0.76658,-0.467431 0.39264,-0.186972 0.84138,-0.186972 0.52352,0 0.86942,0.327202 0.35525,0.327201 0.35525,0.916163 v 1.963208 h 0.617 v 0.579614 z"
         style="font-style:normal;font-variant:normal;font-weight:500;font-stretch:normal;font-size:9.34861px;font-family:Rokkitt;-inkscape-font-specification:'Rokkitt Medium';stroke-width:0.264583"
         id="path253" />
      <path
         d="m 246.59061,50.877885 q -0.59831,0 -1.07509,-0.243064 -0.46743,-0.243064 -0.74789,-0.682449 -0.27111,-0.439384 -0.27111,-1.028347 0,-0.598311 0.26176,-1.028347 0.26176,-0.439385 0.70115,-0.682448 0.44873,-0.243064 1.00965,-0.243064 0.57026,0 0.97225,0.243064 0.41134,0.233715 0.62636,0.663751 0.22437,0.430036 0.22437,1.00965 v 0.196321 h -3.14114 l 0.009,-0.47678 h 2.28106 q 0,-0.317852 -0.12153,-0.551568 -0.12153,-0.233715 -0.3459,-0.345898 -0.22437,-0.121532 -0.51417,-0.121532 -0.31785,0 -0.57027,0.149578 -0.24306,0.149577 -0.38329,0.430036 -0.14023,0.280458 -0.14023,0.6731 0,0.430036 0.15893,0.73854 0.15892,0.299155 0.43938,0.46743 0.28981,0.158927 0.66375,0.158927 0.39264,0 0.72919,-0.149578 0.3459,-0.158926 0.59832,-0.392642 l 0.28045,0.532871 q -0.27111,0.289807 -0.68244,0.486128 -0.41134,0.196321 -0.96291,0.196321 z"
         style="font-style:normal;font-variant:normal;font-weight:500;font-stretch:normal;font-size:9.34861px;font-family:Rokkitt;-inkscape-font-specification:'Rokkitt Medium';stroke-width:0.264583"
         id="path255" />
      <path
         d="m 248.76883,50.765701 v -0.579614 h 0.6544 v -2.533473 h -0.6544 V 47.073 h 1.49578 l 0.009,0.495477 -0.28045,0.05609 q 0.39264,-0.289807 0.78528,-0.46743 0.39264,-0.177624 0.81333,-0.177624 0.53287,0 0.87877,0.327202 0.3459,0.327201 0.3459,0.916163 v 1.963208 h 0.62635 v 0.579614 h -2.04734 v -0.579614 h 0.55157 v -1.804281 q 0,-0.355247 -0.17763,-0.551568 -0.16827,-0.20567 -0.47678,-0.20567 -0.29915,0 -0.61701,0.14023 -0.3085,0.13088 -0.6544,0.373944 l 0.27111,-0.373944 v 2.421289 h 0.59831 v 0.579614 z"
         style="font-style:normal;font-variant:normal;font-weight:500;font-stretch:normal;font-size:9.34861px;font-family:Rokkitt;-inkscape-font-specification:'Rokkitt Medium';stroke-width:0.264583"
         id="path257" />
      <path
         d="m 255.33155,50.765701 q -0.54222,0 -0.82268,-0.261761 -0.28046,-0.271109 -0.28046,-0.832026 v -2.0193 h -0.57026 V 47.073 h 0.57026 v -1.243365 l 0.87877,-0.261761 V 47.073 h 0.93486 v 0.579614 h -0.93486 v 1.925814 q 0,0.327201 0.10283,0.46743 0.11219,0.130881 0.37395,0.130881 h 0.52352 v 0.588962 z"
         style="font-style:normal;font-variant:normal;font-weight:500;font-stretch:normal;font-size:9.34861px;font-family:Rokkitt;-inkscape-font-specification:'Rokkitt Medium';stroke-width:0.264583"
         id="path259" />
    </g>
    <g
       aria-label="Powered by: LabEPI"
       id="text29"
       style="font-style:normal;font-variant:normal;font-weight:bold;font-stretch:normal;font-size:3.52778px;line-height:1.25;font-family:Rokkitt;-inkscape-font-specification:'Rokkitt Bold';fill:#000000;fill-opacity:1;stroke:none;stroke-width:0.264583">
      <path
         d="M 263.53764,66.807213 V 66.62024 h 0.27517 v -1.612195 h -0.27517 v -0.186972 h 0.98072 q 0.36336,0 0.55386,0.144639 0.1905,0.144639 0.1905,0.419805 0,0.289278 -0.19755,0.444501 -0.19403,0.155222 -0.56445,0.155222 h -0.26458 v -0.186972 h 0.254 q 0.2293,0 0.35278,-0.105834 0.12347,-0.105833 0.12347,-0.303389 0,-0.186972 -0.10936,-0.282222 -0.10584,-0.09878 -0.30692,-0.09878 h -0.44803 v 1.612195 h 0.27517 v 0.186973 z"
         style="font-style:normal;font-variant:normal;font-weight:normal;font-stretch:normal;font-family:Rokkitt;-inkscape-font-specification:Rokkitt"
         id="path866" />
      <path
         d="m 266.22228,66.849546 q -0.22225,0 -0.39159,-0.09172 -0.16933,-0.09172 -0.26458,-0.257528 -0.0917,-0.165806 -0.0917,-0.388056 0,-0.22225 0.0917,-0.384528 0.0953,-0.165806 0.26458,-0.254 0.16934,-0.09172 0.39159,-0.09172 0.22578,0 0.39511,0.09172 0.16933,0.08819 0.26458,0.254 0.0952,0.162278 0.0952,0.381 0,0.222251 -0.0952,0.388056 -0.0953,0.165806 -0.26458,0.261056 -0.16933,0.09172 -0.39511,0.09172 z m 0,-0.204611 q 0.14816,0 0.25753,-0.06703 0.10936,-0.06703 0.16933,-0.186972 0.06,-0.119945 0.06,-0.282223 0,-0.15875 -0.06,-0.275166 -0.06,-0.116417 -0.16933,-0.179917 -0.10937,-0.06703 -0.25753,-0.06703 -0.14464,0 -0.254,0.06703 -0.10584,0.0635 -0.16581,0.183444 -0.06,0.116417 -0.06,0.275167 0,0.15875 0.06,0.278695 0.06,0.119944 0.16581,0.186972 0.10936,0.06703 0.254,0.06703 z"
         style="font-style:normal;font-variant:normal;font-weight:normal;font-stretch:normal;font-family:Rokkitt;-inkscape-font-specification:Rokkitt"
         id="path868" />
      <path
         d="m 267.71806,66.807213 -0.43745,-1.199445 h -0.18344 v -0.186973 h 0.62794 v 0.186973 h -0.1905 l 0.32809,0.941917 0.32808,-0.941917 h -0.19756 v -0.186973 h 0.68086 v 0.186973 H 268.473 l 0.3422,0.945445 0.30338,-0.945445 h -0.19402 v -0.186973 h 0.62441 v 0.186973 h -0.19402 l -0.41628,1.199445 h -0.254 l -0.35631,-0.984251 -0.3563,0.984251 z"
         style="font-style:normal;font-variant:normal;font-weight:normal;font-stretch:normal;font-family:Rokkitt;-inkscape-font-specification:Rokkitt"
         id="path870" />
      <path
         d="m 270.45913,66.849546 q -0.21872,0 -0.39863,-0.09172 -0.17639,-0.09172 -0.28223,-0.257528 -0.1023,-0.165806 -0.1023,-0.384528 0,-0.225778 0.0988,-0.388056 0.0988,-0.165806 0.26458,-0.254 0.1658,-0.09172 0.37042,-0.09172 0.21166,0 0.36336,0.08819 0.15522,0.08819 0.23636,0.250473 0.0811,0.162277 0.0811,0.381 v 0.06703 h -1.18534 l 0.004,-0.162278 h 0.92428 q 0,-0.137584 -0.0564,-0.232834 -0.0529,-0.09878 -0.14817,-0.148166 -0.0953,-0.05292 -0.21872,-0.05292 -0.13053,0 -0.23637,0.0635 -0.10583,0.05997 -0.16933,0.176389 -0.06,0.112889 -0.06,0.275167 0,0.172861 0.0635,0.299861 0.0635,0.123472 0.17639,0.194028 0.11641,0.06703 0.26458,0.06703 0.15875,0 0.29281,-0.0635 0.13405,-0.0635 0.23283,-0.15875 l 0.0917,0.15875 q -0.0952,0.109361 -0.24694,0.186972 -0.1517,0.07761 -0.35984,0.07761 z"
         style="font-style:normal;font-variant:normal;font-weight:normal;font-stretch:normal;font-family:Rokkitt;-inkscape-font-specification:Rokkitt"
         id="path872" />
      <path
         d="M 271.33755,66.807213 V 66.62024 h 0.26811 v -1.012472 h -0.26811 v -0.186973 h 0.52564 v 0.412751 l -0.0494,-0.0071 q 0.0388,-0.15875 0.0988,-0.250472 0.0635,-0.09172 0.14111,-0.130528 0.0811,-0.04233 0.1658,-0.04233 0.0706,0 0.14111,0.01764 0.0706,0.01764 0.14111,0.05292 l -0.0635,0.236361 q -0.06,-0.0388 -0.11994,-0.05644 -0.06,-0.02117 -0.12347,-0.02117 -0.13406,0 -0.23284,0.112889 -0.0952,0.109361 -0.0952,0.3175 l -0.004,0.557389 h 0.24694 v 0.186973 z"
         style="font-style:normal;font-variant:normal;font-weight:normal;font-stretch:normal;font-family:Rokkitt;-inkscape-font-specification:Rokkitt"
         id="path874" />
      <path
         d="m 273.44716,66.849546 q -0.21872,0 -0.39864,-0.09172 -0.17639,-0.09172 -0.28222,-0.257528 -0.10231,-0.165806 -0.10231,-0.384528 0,-0.225778 0.0988,-0.388056 0.0988,-0.165806 0.26458,-0.254 0.16581,-0.09172 0.37042,-0.09172 0.21167,0 0.36336,0.08819 0.15522,0.08819 0.23636,0.250473 0.0811,0.162277 0.0811,0.381 v 0.06703 h -1.18533 l 0.004,-0.162278 h 0.92427 q 0,-0.137584 -0.0564,-0.232834 -0.0529,-0.09878 -0.14817,-0.148166 -0.0953,-0.05292 -0.21872,-0.05292 -0.13053,0 -0.23636,0.0635 -0.10583,0.05997 -0.16933,0.176389 -0.06,0.112889 -0.06,0.275167 0,0.172861 0.0635,0.299861 0.0635,0.123472 0.17639,0.194028 0.11642,0.06703 0.26459,0.06703 0.15875,0 0.2928,-0.0635 0.13406,-0.0635 0.23283,-0.15875 l 0.0917,0.15875 q -0.0953,0.109361 -0.24695,0.186972 -0.15169,0.07761 -0.35983,0.07761 z"
         style="font-style:normal;font-variant:normal;font-weight:normal;font-stretch:normal;font-family:Rokkitt;-inkscape-font-specification:Rokkitt"
         id="path876" />
      <path
         d="m 275.00996,66.846018 q -0.1905,0 -0.35278,-0.08467 -0.15875,-0.08819 -0.25753,-0.254 -0.0988,-0.165806 -0.0988,-0.395112 0,-0.236361 0.0917,-0.395111 0.0952,-0.162278 0.25047,-0.246945 0.15522,-0.08467 0.33867,-0.08467 0.14816,0 0.2928,0.05645 0.14817,0.05292 0.26106,0.151694 l -0.0847,0.03175 v -0.656168 h -0.24694 v -0.183444 h 0.508 v 1.834445 h 0.21872 v 0.186973 h -0.47978 v -0.183445 l 0.0811,0.01411 q -0.1023,0.09878 -0.23283,0.155223 -0.127,0.05292 -0.28928,0.05292 z m 0.0564,-0.197555 q 0.13759,0 0.254,-0.05292 0.11995,-0.05292 0.21873,-0.141111 l -0.0882,0.119944 v -0.917222 l 0.0882,0.127 q -0.10936,-0.09525 -0.24695,-0.148167 -0.13405,-0.05292 -0.25753,-0.05292 -0.13405,0 -0.23989,0.0635 -0.1023,0.0635 -0.16227,0.186973 -0.06,0.119944 -0.06,0.299861 0,0.165806 0.067,0.282222 0.067,0.112889 0.17639,0.172861 0.11289,0.05997 0.25047,0.05997 z"
         style="font-style:normal;font-variant:normal;font-weight:normal;font-stretch:normal;font-family:Rokkitt;-inkscape-font-specification:Rokkitt"
         id="path878" />
      <path
         d="m 277.69459,64.785795 v 0.829028 h -0.0847 q 0.11289,-0.112889 0.26459,-0.169333 0.15169,-0.05997 0.2928,-0.05997 0.18697,0 0.33867,0.08114 0.15522,0.08114 0.24342,0.239889 0.0917,0.158751 0.0917,0.388056 0,0.236362 -0.10231,0.405695 -0.0988,0.165806 -0.26105,0.254 -0.16228,0.08819 -0.35631,0.08819 -0.15169,0 -0.27869,-0.05644 -0.127,-0.05644 -0.22225,-0.172861 l 0.0741,0.03528 v 0.15875 h -0.51858 V 66.62024 h 0.25752 v -1.651001 h -0.25047 v -0.183444 z m 0.40217,0.800806 q -0.11995,0 -0.25048,0.05997 -0.13052,0.05644 -0.23988,0.176389 l 0.0882,-0.141111 v 0.896056 l -0.0811,-0.144639 q 0.0917,0.09878 0.2152,0.15875 0.127,0.05645 0.24694,0.05645 0.20814,0 0.34925,-0.134056 0.14464,-0.137583 0.14464,-0.398639 0,-0.254 -0.13406,-0.391584 -0.13405,-0.137583 -0.33866,-0.137583 z"
         style="font-style:normal;font-variant:normal;font-weight:normal;font-stretch:normal;font-family:Rokkitt;-inkscape-font-specification:Rokkitt"
         id="path880" />
      <path
         d="m 279.28562,67.36813 v -0.211667 h 0.15875 q 0.0917,0 0.14816,-0.01411 0.0564,-0.01411 0.0952,-0.0635 0.0423,-0.04939 0.0776,-0.155222 l 0.0741,-0.204612 h -0.10936 l -0.51506,-1.11125 h -0.25753 v -0.186973 h 0.72673 v 0.186973 h -0.20462 l 0.41628,0.941917 0.37042,-0.941917 h -0.23989 v -0.186973 h 0.7232 v 0.186973 h -0.22578 l -0.51506,1.280584 q -0.0635,0.162278 -0.11994,0.268111 -0.0529,0.105833 -0.14817,0.15875 -0.0953,0.05292 -0.27517,0.05292 z"
         style="font-style:normal;font-variant:normal;font-weight:normal;font-stretch:normal;font-family:Rokkitt;-inkscape-font-specification:Rokkitt"
         id="path882" />
      <path
         d="m 280.97189,66.807213 v -0.331611 h 0.33161 v 0.331611 z m 0,-1.054806 v -0.331612 h 0.33161 v 0.331612 z"
         style="font-style:normal;font-variant:normal;font-weight:normal;font-stretch:normal;font-family:Rokkitt;-inkscape-font-specification:Rokkitt"
         id="path884" />
      <path
         d="m 282.84161,66.807213 v -0.296334 h 0.2293 v -1.442862 h -0.2293 v -0.278694 h 0.94191 v 0.278694 h -0.2293 v 1.442862 h 0.65617 v -0.564445 h 0.33866 v 0.860779 z"
         style="font-style:normal;font-variant:normal;font-weight:bold;font-stretch:normal;font-size:3.52778px;font-family:Rokkitt;-inkscape-font-specification:'Rokkitt Bold';stroke-width:0.264583"
         id="path886" />
      <path
         d="m 285.22285,66.846018 q -0.21519,0 -0.34219,-0.116416 -0.127,-0.116417 -0.127,-0.296334 0,-0.162278 0.0776,-0.257528 0.0776,-0.09525 0.20461,-0.137583 0.13053,-0.04233 0.27517,-0.04233 0.12347,0 0.23283,0.02117 0.10936,0.02117 0.19403,0.05292 l -0.0882,0.01411 v -0.141111 q 0,-0.144639 -0.0776,-0.215195 -0.0741,-0.07055 -0.21166,-0.07055 -0.0988,0 -0.21873,0.03175 -0.11994,0.02822 -0.25047,0.09172 l -0.1023,-0.250473 q 0.15522,-0.08114 0.32455,-0.119944 0.16933,-0.04233 0.32808,-0.04233 0.20109,0 0.33867,0.06703 0.14111,0.06703 0.2152,0.190501 0.0741,0.119944 0.0741,0.289277 v 0.627945 h 0.18697 v 0.264584 h -0.54328 l -0.0529,-0.211667 h 0.11641 q -0.12347,0.127 -0.254,0.1905 -0.13052,0.05997 -0.29986,0.05997 z m 0.13053,-0.239889 q 0.0952,0 0.18697,-0.04233 0.0953,-0.04233 0.1905,-0.137583 l -0.0811,0.130527 v -0.370416 l 0.0741,0.07408 q -0.067,-0.02822 -0.1517,-0.04586 -0.0811,-0.02117 -0.17639,-0.02117 -0.0988,0 -0.17991,0.04586 -0.0776,0.04586 -0.0776,0.165806 0,0.09172 0.0564,0.148167 0.0564,0.05292 0.15875,0.05292 z"
         style="font-style:normal;font-variant:normal;font-weight:bold;font-stretch:normal;font-size:3.52778px;font-family:Rokkitt;-inkscape-font-specification:'Rokkitt Bold';stroke-width:0.264583"
         id="path888" />
      <path
         d="m 287.00438,64.754045 v 0.871362 l -0.0882,-0.01411 q 0.0953,-0.112889 0.23284,-0.176389 0.14111,-0.06703 0.29986,-0.06703 0.19403,0 0.33867,0.08819 0.14464,0.08819 0.22577,0.250472 0.0847,0.158751 0.0847,0.381001 0,0.232833 -0.0917,0.402167 -0.0882,0.169333 -0.24342,0.261055 -0.15169,0.09172 -0.34572,0.09172 -0.17286,0 -0.30692,-0.0635 -0.13053,-0.0635 -0.23636,-0.183445 l 0.11289,0.05292 -0.007,0.15875 h -0.61383 v -0.264584 h 0.20814 v -1.527528 h -0.20461 v -0.261056 z m 0.28222,0.938389 q -0.0953,0 -0.19403,0.04939 -0.0953,0.04586 -0.17286,0.141111 l 0.0847,-0.165805 v 0.804334 l -0.0882,-0.169334 q 0.0741,0.08114 0.16934,0.127 0.0953,0.04586 0.19403,0.04586 0.16227,0 0.26811,-0.109361 0.10583,-0.112889 0.10583,-0.306917 0,-0.204611 -0.1023,-0.310444 -0.10231,-0.105834 -0.26459,-0.105834 z"
         style="font-style:normal;font-variant:normal;font-weight:bold;font-stretch:normal;font-size:3.52778px;font-family:Rokkitt;-inkscape-font-specification:'Rokkitt Bold';stroke-width:0.264583"
         id="path890" />
      <path
         d="m 288.32729,66.807213 v -0.296334 h 0.22931 v -1.425223 h -0.22931 v -0.296333 h 1.85561 v 0.659695 h -0.31397 v -0.363362 h -0.8255 v 0.539751 h 0.42333 V 65.41374 h 0.24342 v 0.716139 h -0.23989 v -0.218722 h -0.42686 v 0.596195 h 0.83961 v -0.388056 h 0.3175 v 0.687917 z"
         style="font-style:normal;font-variant:normal;font-weight:bold;font-stretch:normal;font-size:3.52778px;font-family:Rokkitt;-inkscape-font-specification:'Rokkitt Bold';stroke-width:0.264583"
         id="path892" />
      <path
         d="m 290.53568,66.807213 v -0.296334 h 0.22931 v -1.425223 h -0.22931 v -0.296333 h 1.06186 q 0.40217,0 0.61384,0.144639 0.21166,0.141111 0.21166,0.448028 0,0.3175 -0.20814,0.469194 -0.20461,0.151695 -0.59266,0.151695 h -0.23636 v -0.296334 h 0.17991 q 0.17286,0 0.26459,-0.08114 0.0917,-0.08114 0.0917,-0.236362 0,-0.148167 -0.0847,-0.225778 -0.0811,-0.07761 -0.23989,-0.07761 h -0.34925 v 1.425223 h 0.24695 v 0.296334 z"
         style="font-style:normal;font-variant:normal;font-weight:bold;font-stretch:normal;font-size:3.52778px;font-family:Rokkitt;-inkscape-font-specification:'Rokkitt Bold';stroke-width:0.264583"
         id="path894" />
      <path
         d="m 292.69468,66.807213 v -0.296334 h 0.2293 v -1.425223 h -0.2293 v -0.296333 h 0.94544 v 0.296333 h -0.23283 v 1.425223 h 0.23283 v 0.296334 z"
         style="font-style:normal;font-variant:normal;font-weight:bold;font-stretch:normal;font-size:3.52778px;font-family:Rokkitt;-inkscape-font-specification:'Rokkitt Bold';stroke-width:0.264583"
         id="path896" />
    </g>
  </g>
  <g
     inkscape:label="ICON"
     inkscape:groupmode="layer"
     id="layer1">
    <rect
       style="fill:#1c1f24;fill-opacity:1;stroke-width:0.210608"
       id="rect115"
       width="70"
       height="70"
       x="8.8817842e-16"
       y="0" />
    <g
       id="g113"
       transform="translate(0.82858645,0.47434995)">
      <circle
         style="fill:#ffffff;stroke-width:0.210608"
         id="path46"
         cx="34.171413"
         cy="34.52565"
         r="30" />
      <circle
         style="fill:#1c1f24;fill-opacity:1;stroke-width:0.210608"
         id="path46-6"
         cx="34.163059"
         cy="34.523792"
         r="26" />
      <rect
         style="fill:#ffffff;fill-opacity:1;stroke-width:0.228952"
         id="rect1176-7"
         width="2.4380202"
         height="10.367119"
         x="-0.93027222"
         y="35.38343"
         ry="0.709068"
         transform="matrix(0.83335959,-0.55273121,0.5520669,0.83379982,0,0)" />
      <path
         id="rect336-5"
         style="fill:#ffffff;fill-opacity:1;stroke-width:0.210608"
         d="m 36.820716,43.505386 4.744006,-3.170505 0.04198,0.02549 0.02059,0.04999 0.811167,1.809378 0.576991,1.41442 1.091511,1.987223 6.116218,9.85789 -2.992043,1.932254 -6.730559,-9.528923 -1.388012,-1.812318 -0.857014,-0.944191 -1.362711,-1.488189 -0.05665,-0.074 z"
         sodipodi:nodetypes="ccccccccccccccc" />
      <rect
         style="fill:#ffffff;fill-opacity:1;stroke-width:0.227746"
         id="rect1176-7-2"
         width="2.4380202"
         height="10.258235"
         x="17.092285"
         y="35.43858"
         ry="0.70162082"
         transform="matrix(0.83337756,-0.55270411,0.55208723,0.83378636,0,0)" />
      <path
         id="rect1328"
         style="fill:#ffffff;fill-opacity:1;stroke-width:0.210608"
         d="m 21.662108,38.916946 c 0.187743,0.404777 0.407825,0.802718 0.664832,1.188474 l 3.727402,5.59466 c 2.409066,3.615855 6.948604,4.798446 10.178237,2.651732 l 9.993541,-6.642657 c 3.229662,-2.146676 3.890257,-6.785949 1.481204,-10.401812 l -3.727402,-5.59466 C 43.735556,25.345942 43.46847,25.00599 43.183873,24.690238 Z" />
    </g>
  </g>
  <g
     inkscape:groupmode="layer"
     id="layer2"
     inkscape:label="Text" />
</svg>
